<svg xmlns="http://www.w3.org/2000/svg" xmlns:xlink="http://www.w3.org/1999/xlink" contentStyleType="text/css" data-diagram-type="CLASS" height="505px" preserveAspectRatio="none" style="width:1585px;height:505px;background:#FFFFFF;" version="1.1" viewBox="0 0 1585 505" width="1585px" zoomAndPan="magnify"><defs/><g><!--class org.quurz.foomp.base.functions.Provider--><g class="entity" data-entity="org.quurz.foomp.base.functions.Provider" data-source-line="13" data-uid="ent0002" id="entity_org.quurz.foomp.base.functions.Provider"><a href="Provider.html" target="_top" title="Provider.html" xlink:actuate="onRequest" xlink:href="Provider.html" xlink:show="new" xlink:title="Provider.html" xlink:type="simple"><rect fill="#F1F1F1" height="260.435" rx="2.5" ry="2.5" style="stroke:#181818;stroke-width:0.5;" width="606.0457" x="593" y="137"/><ellipse cx="815.3359" cy="158.344" fill="#B4A7E5" rx="11" ry="11" style="stroke:#181818;stroke-width:1;"/><path d="M811.6328,152.6408 L819.2421,152.6408 L819.2421,154.5315 L816.664,154.5315 L816.664,161.9533 L819.2421,161.9533 L819.2421,163.844 L811.6328,163.844 L811.6328,161.9533 L814.2265,161.9533 L814.2265,154.5315 L811.6328,154.5315 L811.6328,152.6408 Z " fill="#000000"/><text fill="#000000" font-family="sans-serif" font-size="14" font-style="italic" lengthAdjust="spacing" textLength="52.2058" x="880.7979" y="156.9659">Provider</text><text fill="#000000" font-family="sans-serif" font-size="10" font-style="italic" lengthAdjust="spacing" textLength="142.1298" x="835.8359" y="171.7579">org.quurz.foomp.base.functions</text><rect fill="#FFFFFF" height="18.3441" style="stroke:#181818;stroke-width:1;stroke-dasharray:2,2;" width="8.744" x="1193.3016" y="134"/><text fill="#000000" font-family="sans-serif" font-size="12" font-style="italic" lengthAdjust="spacing" textLength="6.744" x="1194.3016" y="147.8281">A</text><line style="stroke:#181818;stroke-width:0.5;" x1="594" x2="1198.0457" y1="179.6879" y2="179.6879"/><ellipse cx="604" cy="194.7219" fill="#84BE84" rx="3" ry="3" style="stroke:#038048;stroke-width:1;"/><text fill="#000000" font-family="sans-serif" font-size="14" lengthAdjust="spacing" text-decoration="underline" textLength="303.6169" x="613" y="198.6538">narrow(Higher1&lt;? extends &#181;, A&gt;): Provider&lt;A&gt;</text><ellipse cx="604" cy="213.7898" fill="#84BE84" rx="3" ry="3" style="stroke:#038048;stroke-width:1;"/><text fill="#000000" font-family="sans-serif" font-size="14" lengthAdjust="spacing" text-decoration="underline" textLength="219.2251" x="613" y="217.7218">provider(NonNull A): Provider&lt;A&gt;</text><ellipse cx="604" cy="232.8577" fill="#84BE84" rx="3" ry="3" style="stroke:#038048;stroke-width:1;"/><text fill="#000000" font-family="sans-serif" font-size="14" lengthAdjust="spacing" text-decoration="underline" textLength="266.391" x="613" y="236.7897">providerFrom(Supplier&lt;A&gt;): Provider&lt;A&gt;</text><ellipse cx="604" cy="251.9256" fill="#84BE84" rx="3" ry="3" style="stroke:#038048;stroke-width:1;"/><text fill="#000000" font-family="sans-serif" font-size="14" lengthAdjust="spacing" textLength="130.1295" x="613" y="255.8576">isPresent(): boolean</text><ellipse cx="604" cy="270.9935" fill="#84BE84" rx="3" ry="3" style="stroke:#038048;stroke-width:1;"/><text fill="#000000" font-family="sans-serif" font-size="14" font-style="italic" lengthAdjust="spacing" textLength="97.7056" x="613" y="274.9255">get(): NonNull A</text><ellipse cx="604" cy="290.0614" fill="#84BE84" rx="3" ry="3" style="stroke:#038048;stroke-width:1;"/><text fill="#000000" font-family="sans-serif" font-size="14" lengthAdjust="spacing" textLength="172.1713" x="613" y="293.9934">apply(Nothing): NonNull A</text><ellipse cx="604" cy="309.1294" fill="#84BE84" rx="3" ry="3" style="stroke:#038048;stroke-width:1;"/><text fill="#000000" font-family="sans-serif" font-size="14" lengthAdjust="spacing" textLength="341.3047" x="613" y="313.0613">map(Function&lt;? super A, ? extends B&gt;): Provider&lt;&#8203;B&gt;</text><ellipse cx="604" cy="328.1973" fill="#84BE84" rx="3" ry="3" style="stroke:#038048;stroke-width:1;"/><text fill="#000000" font-family="sans-serif" font-size="14" lengthAdjust="spacing" textLength="580.0457" x="613" y="332.1293">applyTo(Higher1&lt;? extends &#181;, ? extends Function&lt;? super A, ? extends B&gt;&gt;): Provider&lt;&#8203;B&gt;</text><ellipse cx="604" cy="347.2652" fill="#84BE84" rx="3" ry="3" style="stroke:#038048;stroke-width:1;"/><text fill="#000000" font-family="sans-serif" font-size="14" lengthAdjust="spacing" textLength="512.8881" x="613" y="351.1972">flatMap(Function&lt;? super A, ? extends Higher1&lt;? extends &#181;, B&gt;&gt;): Provider&lt;&#8203;B&gt;</text><ellipse cx="604" cy="366.3331" fill="#84BE84" rx="3" ry="3" style="stroke:#038048;stroke-width:1;"/><text fill="#000000" font-family="sans-serif" font-size="14" lengthAdjust="spacing" textLength="452.6042" x="613" y="370.2651">transmogrify(Function&lt;? super Provider&lt;A&gt;, ? extends T&gt;): NonNull T</text><ellipse cx="604" cy="385.401" fill="#84BE84" rx="3" ry="3" style="stroke:#038048;stroke-width:1;"/><text fill="#000000" font-family="sans-serif" font-size="14" lengthAdjust="spacing" textLength="145.6694" x="613" y="389.333">unwind(): Provider&lt;A&gt;</text></a></g><!--class org.quurz.foomp.base.types.Monadic--><g class="entity" data-entity="org.quurz.foomp.base.types.Monadic" data-source-line="27" data-uid="ent0003" id="entity_org.quurz.foomp.base.types.Monadic"><a href="../types/Monadic.html" target="_top" title="../types/Monadic.html" xlink:actuate="onRequest" xlink:href="../types/Monadic.html" xlink:show="new" xlink:title="../types/Monadic.html" xlink:type="simple"><rect fill="#F1F1F1" height="42.6879" rx="2.5" ry="2.5" style="stroke:#181818;stroke-width:0.5;" width="180.246" x="6" y="35"/><ellipse cx="21" cy="56.344" fill="#B4A7E5" rx="11" ry="11" style="stroke:#181818;stroke-width:1;"/><path d="M17.2969,50.6408 L24.9063,50.6408 L24.9063,52.5315 L22.3281,52.5315 L22.3281,59.9533 L24.9063,59.9533 L24.9063,61.844 L17.2969,61.844 L17.2969,59.9533 L19.8906,59.9533 L19.8906,52.5315 L17.2969,52.5315 L17.2969,50.6408 Z " fill="#000000"/><text fill="#000000" font-family="sans-serif" font-size="14" font-style="italic" lengthAdjust="spacing" textLength="53.7738" x="70.258" y="54.9659">Monadic</text><text fill="#000000" font-family="sans-serif" font-size="10" font-style="italic" lengthAdjust="spacing" textLength="124.2898" x="35" y="69.7579">org.quurz.foomp.base.types</text><rect fill="#FFFFFF" height="18.3441" style="stroke:#181818;stroke-width:1;stroke-dasharray:2,2;" width="21.9561" x="167.2898" y="32"/><text fill="#000000" font-family="sans-serif" font-size="12" font-style="italic" lengthAdjust="spacing" textLength="19.9561" x="168.2898" y="45.8281">&#181;, A</text></a></g><!--class org.quurz.foomp.base.types.Unwindable--><g class="entity" data-entity="org.quurz.foomp.base.types.Unwindable" data-source-line="28" data-uid="ent0004" id="entity_org.quurz.foomp.base.types.Unwindable"><a href="../types/Unwindable.html" target="_top" title="../types/Unwindable.html" xlink:actuate="onRequest" xlink:href="../types/Unwindable.html" xlink:show="new" xlink:title="../types/Unwindable.html" xlink:type="simple"><rect fill="#F1F1F1" height="69.7558" rx="2.5" ry="2.5" style="stroke:#181818;stroke-width:0.5;" width="225.5103" x="204" y="21.5"/><ellipse cx="219" cy="42.844" fill="#B4A7E5" rx="11" ry="11" style="stroke:#181818;stroke-width:1;"/><path d="M215.2969,37.1408 L222.9063,37.1408 L222.9063,39.0315 L220.3281,39.0315 L220.3281,46.4533 L222.9063,46.4533 L222.9063,48.344 L215.2969,48.344 L215.2969,46.4533 L217.8906,46.4533 L217.8906,39.0315 L215.2969,39.0315 L215.2969,37.1408 Z " fill="#000000"/><text fill="#000000" font-family="sans-serif" font-size="14" font-style="italic" lengthAdjust="spacing" textLength="74.1857" x="258.052" y="41.4659">Unwindable</text><text fill="#000000" font-family="sans-serif" font-size="10" font-style="italic" lengthAdjust="spacing" textLength="124.2898" x="233" y="56.2579">org.quurz.foomp.base.types</text><rect fill="#FFFFFF" height="18.3441" style="stroke:#181818;stroke-width:1;stroke-dasharray:2,2;" width="67.2204" x="365.2898" y="18.5"/><text fill="#000000" font-family="sans-serif" font-size="12" font-style="italic" lengthAdjust="spacing" textLength="65.2204" x="366.2898" y="32.3281">Provider&lt;A&gt;</text><line style="stroke:#181818;stroke-width:0.5;" x1="205" x2="428.5103" y1="64.1879" y2="64.1879"/><ellipse cx="215" cy="79.2219" fill="#84BE84" rx="3" ry="3" style="stroke:#038048;stroke-width:1;"/><text fill="#000000" font-family="sans-serif" font-size="14" font-style="italic" lengthAdjust="spacing" textLength="137.5915" x="224" y="83.1538">unwind(): Provider&lt;A&gt;</text></a></g><!--class org.quurz.foomp.base.types.Transmogrifyable--><g class="entity" data-entity="org.quurz.foomp.base.types.Transmogrifyable" data-source-line="31" data-uid="ent0005" id="entity_org.quurz.foomp.base.types.Transmogrifyable"><a href="../types/Transmogrifyable.html" target="_top" title="../types/Transmogrifyable.html" xlink:actuate="onRequest" xlink:href="../types/Transmogrifyable.html" xlink:show="new" xlink:title="../types/Transmogrifyable.html" xlink:type="simple"><rect fill="#F1F1F1" height="69.7558" rx="2.5" ry="2.5" style="stroke:#181818;stroke-width:0.5;" width="508.4381" x="448" y="21.5"/><ellipse cx="601.2139" cy="42.844" fill="#B4A7E5" rx="11" ry="11" style="stroke:#181818;stroke-width:1;"/><path d="M597.5108,37.1408 L605.1202,37.1408 L605.1202,39.0315 L602.542,39.0315 L602.542,46.4533 L605.1202,46.4533 L605.1202,48.344 L597.5108,48.344 L597.5108,46.4533 L600.1045,46.4533 L600.1045,39.0315 L597.5108,39.0315 L597.5108,37.1408 Z " fill="#000000"/><text fill="#000000" font-family="sans-serif" font-size="14" font-style="italic" lengthAdjust="spacing" textLength="109.7596" x="628.979" y="41.4659">Transmogrifyable</text><text fill="#000000" font-family="sans-serif" font-size="10" font-style="italic" lengthAdjust="spacing" textLength="124.2898" x="621.7139" y="56.2579">org.quurz.foomp.base.types</text><rect fill="#FFFFFF" height="18.3441" style="stroke:#181818;stroke-width:1;stroke-dasharray:2,2;" width="67.2204" x="892.2177" y="18.5"/><text fill="#000000" font-family="sans-serif" font-size="12" font-style="italic" lengthAdjust="spacing" textLength="65.2204" x="893.2177" y="32.3281">Provider&lt;A&gt;</text><line style="stroke:#181818;stroke-width:0.5;" x1="449" x2="955.4381" y1="64.1879" y2="64.1879"/><ellipse cx="459" cy="79.2219" fill="#84BE84" rx="3" ry="3" style="stroke:#038048;stroke-width:1;"/><text fill="#000000" font-family="sans-serif" font-size="14" font-style="italic" lengthAdjust="spacing" textLength="482.4381" x="468" y="83.1538">transmogrify(Function&lt;? super Transmogrifyable&lt;?&gt;, ? extends T&gt;): NonNull T</text></a></g><!--class org.quurz.foomp.base.functions.Fun--><g class="entity" data-entity="org.quurz.foomp.base.functions.Fun" data-source-line="34" data-uid="ent0006" id="entity_org.quurz.foomp.base.functions.Fun"><a href="Fun.html" target="_top" title="Fun.html" xlink:actuate="onRequest" xlink:href="Fun.html" xlink:show="new" xlink:title="Fun.html" xlink:type="simple"><rect fill="#F1F1F1" height="69.7558" rx="2.5" ry="2.5" style="stroke:#181818;stroke-width:0.5;" width="234.2302" x="974" y="21.5"/><ellipse cx="989" cy="42.844" fill="#B4A7E5" rx="11" ry="11" style="stroke:#181818;stroke-width:1;"/><path d="M985.2969,37.1408 L992.9063,37.1408 L992.9063,39.0315 L990.3281,39.0315 L990.3281,46.4533 L992.9063,46.4533 L992.9063,48.344 L985.2969,48.344 L985.2969,46.4533 L987.8906,46.4533 L987.8906,39.0315 L985.2969,39.0315 L985.2969,37.1408 Z " fill="#000000"/><text fill="#000000" font-family="sans-serif" font-size="14" font-style="italic" lengthAdjust="spacing" textLength="22.8899" x="1062.6199" y="41.4659">Fun</text><text fill="#000000" font-family="sans-serif" font-size="10" font-style="italic" lengthAdjust="spacing" textLength="142.1298" x="1003" y="56.2579">org.quurz.foomp.base.functions</text><rect fill="#FFFFFF" height="18.3441" style="stroke:#181818;stroke-width:1;stroke-dasharray:2,2;" width="58.1004" x="1153.1298" y="18.5"/><text fill="#000000" font-family="sans-serif" font-size="12" font-style="italic" lengthAdjust="spacing" textLength="56.1004" x="1154.1298" y="32.3281">Nothing, A</text><line style="stroke:#181818;stroke-width:0.5;" x1="975" x2="1207.2302" y1="64.1879" y2="64.1879"/><ellipse cx="985" cy="79.2219" fill="#84BE84" rx="3" ry="3" style="stroke:#038048;stroke-width:1;"/><text fill="#000000" font-family="sans-serif" font-size="14" font-style="italic" lengthAdjust="spacing" textLength="173.6694" x="994" y="83.1538">apply(NonNull X): NonNull Y</text></a></g><!--class org.quurz.foomp.base.types.Value--><g class="entity" data-entity="org.quurz.foomp.base.types.Value" data-source-line="37" data-uid="ent0007" id="entity_org.quurz.foomp.base.types.Value"><a href="../types/Value.html" target="_top" title="../types/Value.html" xlink:actuate="onRequest" xlink:href="../types/Value.html" xlink:show="new" xlink:title="../types/Value.html" xlink:type="simple"><rect fill="#F1F1F1" height="88.8237" rx="2.5" ry="2.5" style="stroke:#181818;stroke-width:0.5;" width="167.0339" x="1226.5" y="12"/><ellipse cx="1241.5" cy="33.344" fill="#B4A7E5" rx="11" ry="11" style="stroke:#181818;stroke-width:1;"/><path d="M1237.7969,27.6408 L1245.4063,27.6408 L1245.4063,29.5315 L1242.8281,29.5315 L1242.8281,36.9533 L1245.4063,36.9533 L1245.4063,38.844 L1237.7969,38.844 L1237.7969,36.9533 L1240.3906,36.9533 L1240.3906,29.5315 L1237.7969,29.5315 L1237.7969,27.6408 Z " fill="#000000"/><text fill="#000000" font-family="sans-serif" font-size="14" font-style="italic" lengthAdjust="spacing" textLength="34.3839" x="1300.453" y="31.9659">Value</text><text fill="#000000" font-family="sans-serif" font-size="10" font-style="italic" lengthAdjust="spacing" textLength="124.2898" x="1255.5" y="46.7579">org.quurz.foomp.base.types</text><rect fill="#FFFFFF" height="18.3441" style="stroke:#181818;stroke-width:1;stroke-dasharray:2,2;" width="8.744" x="1387.7898" y="9"/><text fill="#000000" font-family="sans-serif" font-size="12" font-style="italic" lengthAdjust="spacing" textLength="6.744" x="1388.7898" y="22.8281">A</text><line style="stroke:#181818;stroke-width:0.5;" x1="1227.5" x2="1392.5339" y1="54.6879" y2="54.6879"/><ellipse cx="1237.5" cy="69.7219" fill="#84BE84" rx="3" ry="3" style="stroke:#038048;stroke-width:1;"/><text fill="#000000" font-family="sans-serif" font-size="14" font-style="italic" lengthAdjust="spacing" textLength="121.8135" x="1246.5" y="73.6538">isPresent(): boolean</text><ellipse cx="1237.5" cy="88.7898" fill="#84BE84" rx="3" ry="3" style="stroke:#038048;stroke-width:1;"/><text fill="#000000" font-family="sans-serif" font-size="14" font-style="italic" lengthAdjust="spacing" textLength="42.9518" x="1246.5" y="92.7218">get(): A</text></a></g><!--class org.quurz.foomp.higher.Higher1--><g class="entity" data-entity="org.quurz.foomp.higher.Higher1" data-source-line="41" data-uid="ent0008" id="entity_org.quurz.foomp.higher.Higher1"><rect fill="#F1F1F1" height="42.6879" rx="2.5" ry="2.5" style="stroke:#181818;stroke-width:0.5;" width="162.736" x="1411.5" y="35"/><ellipse cx="1426.5" cy="56.344" fill="#B4A7E5" rx="11" ry="11" style="stroke:#181818;stroke-width:1;"/><path d="M1422.7969,50.6408 L1430.4063,50.6408 L1430.4063,52.5315 L1427.8281,52.5315 L1427.8281,59.9533 L1430.4063,59.9533 L1430.4063,61.844 L1422.7969,61.844 L1422.7969,59.9533 L1425.3906,59.9533 L1425.3906,52.5315 L1422.7969,52.5315 L1422.7969,50.6408 Z " fill="#000000"/><text fill="#000000" font-family="sans-serif" font-size="14" font-style="italic" lengthAdjust="spacing" textLength="49.6158" x="1469.082" y="54.9659">Higher1</text><text fill="#000000" font-family="sans-serif" font-size="10" font-style="italic" lengthAdjust="spacing" textLength="106.7799" x="1440.5" y="69.7579">org.quurz.foomp.higher</text><rect fill="#FFFFFF" height="18.3441" style="stroke:#181818;stroke-width:1;stroke-dasharray:2,2;" width="21.9561" x="1555.2799" y="32"/><text fill="#000000" font-family="sans-serif" font-size="12" font-style="italic" lengthAdjust="spacing" textLength="19.9561" x="1556.2799" y="45.8281">&#181;, A</text></g><!--class org.quurz.foomp.base.functions.Provider.?--><g class="entity" data-entity="org.quurz.foomp.base.functions.Provider.." data-source-line="42" data-uid="ent0009" id="entity_org.quurz.foomp.base.functions.Provider.."><a href="Provider.&#181;.html" target="_top" title="Provider.&#181;.html" xlink:actuate="onRequest" xlink:href="Provider.&#181;.html" xlink:show="new" xlink:title="Provider.&#181;.html" xlink:type="simple"><rect fill="#F1F1F1" height="42.6879" rx="2.5" ry="2.5" style="stroke:#181818;stroke-width:0.5;" width="183.4298" x="804.5" y="433"/><ellipse cx="819.5" cy="454.344" fill="#ADD1B2" rx="11" ry="11" style="stroke:#181818;stroke-width:1;"/><path d="M817.4063,454.1877 Q817.4063,456.0627 817.9844,457.0783 Q818.5625,458.0783 819.7188,458.0783 Q821.0625,458.0783 821.7188,456.0627 L823.9844,456.4846 Q822.875,460.0158 819.7031,460.0158 Q817.3594,460.0158 816.1406,458.5315 Q814.9219,457.0471 814.9219,454.1877 Q814.9219,448.469 819.625,448.469 Q821.1719,448.469 822.2031,449.2815 Q823.25,450.094 823.75,451.7033 L821.4844,452.2502 Q821.25,451.3752 820.7656,450.8908 Q820.2813,450.3908 819.6563,450.3908 Q817.4063,450.3908 817.4063,454.1877 Z " fill="#000000"/><text fill="#000000" font-family="sans-serif" font-size="14" lengthAdjust="spacing" textLength="68.2077" x="875.111" y="452.9659">Provider.&#181;</text><text fill="#000000" font-family="sans-serif" font-size="10" lengthAdjust="spacing" textLength="151.4298" x="833.5" y="467.7579">org.quurz.foomp.base.functions</text></a></g><g class="link" data-entity-1="org.quurz.foomp.base.types.Monadic" data-entity-2="org.quurz.foomp.base.functions.Provider" data-uid="lnk10" id="link_org.quurz.foomp.base.types.Monadic_org.quurz.foomp.base.functions.Provider"><polygon fill="none" points="138.2107,78.0827,152.0937,91.0157,157.0769,80.0993,138.2107,78.0827" style="stroke:#181818;stroke-width:1;"/><path d="M154.5853,85.5575 C171.9024,93.4625 175.9485,94.6318 195,101 C323.2127,143.8564 468.1727,179.9454 592.861,207.3383" fill="none" style="stroke:#181818;stroke-width:1;"/></g><g class="link" data-entity-1="org.quurz.foomp.base.types.Unwindable" data-entity-2="org.quurz.foomp.base.functions.Provider" data-uid="lnk11" id="link_org.quurz.foomp.base.types.Unwindable_org.quurz.foomp.base.functions.Provider"><polygon fill="none" points="411.6382,91.5795,426.5407,103.3232,430.6064,92.0329,411.6382,91.5795" style="stroke:#181818;stroke-width:1;"/><path d="M428.5736,97.678 C478.9129,115.8054 526.9885,133.1176 592.9399,156.867" fill="none" style="stroke:#181818;stroke-width:1;"/></g><g class="link" data-entity-1="org.quurz.foomp.base.types.Transmogrifyable" data-entity-2="org.quurz.foomp.base.functions.Provider" data-uid="lnk12" id="link_org.quurz.foomp.base.types.Transmogrifyable_org.quurz.foomp.base.functions.Provider"><polygon fill="none" points="734.0352,91.9295,741.904,109.1946,750.6892,101.0203,734.0352,91.9295" style="stroke:#181818;stroke-width:1;"/><path d="M746.2966,105.1074 C758.35,118.0618 760.6189,120.5002 775.9657,136.9941" fill="none" style="stroke:#181818;stroke-width:1;"/></g><g class="link" data-entity-1="org.quurz.foomp.base.functions.Fun" data-entity-2="org.quurz.foomp.base.functions.Provider" data-uid="lnk13" id="link_org.quurz.foomp.base.functions.Fun_org.quurz.foomp.base.functions.Provider"><polygon fill="none" points="1058.7997,91.9295,1042.1224,100.9775,1050.8867,109.1743,1058.7997,91.9295" style="stroke:#181818;stroke-width:1;"/><path d="M1046.5045,105.0759 C1034.3889,118.0303 1032.0789,120.5002 1016.653,136.9941" fill="none" style="stroke:#181818;stroke-width:1;"/></g><g class="link" data-entity-1="org.quurz.foomp.base.types.Value" data-entity-2="org.quurz.foomp.base.functions.Provider" data-uid="lnk14" id="link_org.quurz.foomp.base.types.Value_org.quurz.foomp.base.functions.Provider"><polygon fill="none" points="1226.2209,99.6931,1207.4458,102.4307,1212.8434,113.1483,1226.2209,99.6931" style="stroke:#181818;stroke-width:1;"/><path d="M1210.1446,107.7895 C1187.9349,118.9748 1178.826,123.5623 1152.5064,136.8174" fill="none" style="stroke:#181818;stroke-width:1;"/></g><g class="link" data-entity-1="org.quurz.foomp.higher.Higher1" data-entity-2="org.quurz.foomp.base.functions.Provider" data-uid="lnk15" id="link_org.quurz.foomp.higher.Higher1_org.quurz.foomp.base.functions.Provider"><polygon fill="none" points="1453.2016,78.1722,1434.4075,80.7762,1439.7287,91.5319,1453.2016,78.1722" style="stroke:#181818;stroke-width:1;"/><path d="M1437.0681,86.154 C1421.6044,93.8045 1419.7447,94.2647 1403,101 C1337.84,127.2094 1266.7677,152.3771 1199.0117,174.8181" fill="none" style="stroke:#181818;stroke-width:1;"/></g><g class="link" data-entity-1="org.quurz.foomp.base.functions.Provider" data-entity-2="org.quurz.foomp.base.functions.Provider.." data-uid="lnk16" id="link_org.quurz.foomp.base.functions.Provider_org.quurz.foomp.base.functions.Provider.."><ellipse cx="896" cy="405.0884" fill="#FFFFFF" rx="8" ry="8" style="stroke:#181818;stroke-width:1;"/><line style="stroke:#181818;stroke-width:1;" x1="896" x2="896" y1="413.0884" y2="397.0884"/><line style="stroke:#181818;stroke-width:1;" x1="888" x2="904" y1="405.0884" y2="405.0884"/><path d="M896,413.0884 C896,426.7614 896,423.1829 896,432.8677" fill="none" style="stroke:#181818;stroke-width:1;"/></g><g class="footer" data-source-line="58"><text fill="#888888" font-family="sans-serif" font-size="10" lengthAdjust="spacing" textLength="2.6" x="785.45" y="480.69">&#160;</text><a href="https://github.com/talsma-ict/umldoclet" target="_top" title="https://github.com/talsma-ict/umldoclet" xlink:actuate="onRequest" xlink:href="https://github.com/talsma-ict/umldoclet" xlink:show="new" xlink:title="https://github.com/talsma-ict/umldoclet" xlink:type="simple"><text fill="#888888" font-family="sans-serif" font-size="10" lengthAdjust="spacing" textLength="76.7199" x="748.39" y="494.31">UMLDoclet 2.2.4</text></a></g><!--SRC=[jLVDRjiu4BxtAMRRGrqafcN7wQQ6uCB9zXT94JJEeeMR0otH4b6AL4aggTijiFS-JruWZz8dwPYI8zcrvHJhzSNGpF2RRuOpGn80u24SgNIgUHHRi0fip0sSdnm3bI54J39DBGk19pHY1iPCA1cPt901pMoiDAY9-mgKrioaIePSHl2QNb8mAjC1C-JUFN2kXdFqAsegwEFfJFYN2WIpq3XwLA7KyTgFcnslynY6L9Y4mgkZ8IdGoZKTqY5TG6p10oODGcOoPDhH6gGqmB_ZNBCBbqmRhYIkyGgSMQY1afPoQI2bsffPIAU2IZlZsYReVv-qFMWCpeuNoNbF7BbT66X9in3Uga_PRRn_f9f6I5dGgSeic8HPAcckCyXQqWJpHGDsnj0hjPXAgIHp-fY735YIsYbCE1EXMPOYMAnGxEHSMgOdY0JtVSE_i5wxsp_LwXBDzGTPYBo-qX7vb6Nw2vaebQHaJ0qZaqm65XDYxWDkIhq9cOFwWpwCHlCl4jj4N5p0LqTczljgBBKy-0OxacgjhXelCM5Cj_sdm3vR9aC3DzUOjVwZ7bGmLwnF2stZZP9lCY5WSESbpxLA6cTPcWhkJDSitE7c50kNITj0Yx5IWb5PmjAniPe65e4ZvankcPGG59rCaIAsZunMcoGqRJml4ebfC5cA1JhOXJ8ZXmiCV_px_R2_v66erYIo_Dhaeix7H51xif7cQWRro9X1QH8LQJwP_WfVsPMges6_aibX2PR9Aox3nehj_BQ-7KwKf24FDdM3dQQifXEScXHOVbx2s0Y4j9ocLMYAXbXBvjn5GCU2ROLF2UTNCh90h3HPqQoL4g_BxRfeXfNDtLfCow1h8rish8-llX1_SVfqKq6kpmg2RtNq8fvV39YYwb1I7-nyAkM4trN8lzz0_cygiktieqFo5xl4oUgf_-vC7cm8g1XQDI75pc9bEBcAp0TVtlRELI2eCIiENN9p_R-SkuXRFNTlhkUJnh7PFBB0_wVPlAkpJPZbJDagx78JRWbyePEsIjYLytz7NAoohKSzjuMTk-DYWUMLvHix5Qmyq74LzbYbTsU_bvWDVSpbnoCby2xxu62rzdnsDHTSCdmD11ybmmRoRYtp3lPR5N-5hmzoD8gjJKslrOguZRCn2LJIikvPqEI1RMM92FFtmDBBe3Y97yABsoV7xDRUnDjxUt_OsUjvxLxt2UdkxUzt_zmxEDZnEZtF6ptBj4fPwz2nlVW9]--></g></svg>