<svg xmlns="http://www.w3.org/2000/svg" xmlns:xlink="http://www.w3.org/1999/xlink" contentStyleType="text/css" data-diagram-type="CLASS" height="149px" preserveAspectRatio="none" style="width:327px;height:149px;background:#FFFFFF;" version="1.1" viewBox="0 0 327 149" width="327px" zoomAndPan="magnify"><defs/><g><!--class org.quurz.foomp.base.util.Attempt.?--><g class="entity" data-entity="org.quurz.foomp.base.util.Attempt.." data-source-line="13" data-uid="ent0002" id="entity_org.quurz.foomp.base.util.Attempt.."><a href="Attempt.&#181;.html" target="_top" title="Attempt.&#181;.html" xlink:actuate="onRequest" xlink:href="Attempt.&#181;.html" xlink:show="new" xlink:title="Attempt.&#181;.html" xlink:type="simple"><rect fill="#F1F1F1" height="38.125" rx="2.5" ry="2.5" style="stroke:#181818;stroke-width:0.5;" width="146.7461" x="81.5" y="86"/><ellipse cx="96.5" cy="105.0625" fill="#ADD1B2" rx="11" ry="11" style="stroke:#181818;stroke-width:1;"/><path d="M96.5469,111.2656 C98.0469,111.2656 99.2813,110.7031 100.1875,109.6406 L98.8125,108.125 C98.2656,108.7188 97.6094,109.1094 96.8125,109.1094 C95.1406,109.1094 93.9844,107.7813 93.9844,105.5 C93.9844,103.2813 95.1406,101.9375 96.7031,101.9375 C97.5156,101.9375 98.1094,102.25 98.6406,102.7344 L100.0156,101.1875 C99.2656,100.4531 98.1094,99.7813 96.7031,99.7813 C93.75,99.7813 91.4219,101.9219 91.4219,105.5938 C91.4219,109.3125 93.7969,111.2656 96.5469,111.2656 Z " fill="#000000"/><text fill="#000000" font-family="sans-serif" font-size="14" lengthAdjust="spacing" textLength="62.0635" x="136.8413" y="103.9883">Attempt.&#181;</text><text fill="#000000" font-family="sans-serif" font-size="10" lengthAdjust="spacing" textLength="114.7461" x="110.5" y="116.6836">org.quurz.foomp.base.util</text></a></g><!--class org.quurz.foomp.higher.WitnessType--><g class="entity" data-entity="org.quurz.foomp.higher.WitnessType" data-source-line="15" data-uid="ent0003" id="entity_org.quurz.foomp.higher.WitnessType"><rect fill="#F1F1F1" height="38.125" rx="2.5" ry="2.5" style="stroke:#181818;stroke-width:0.5;" width="133.5625" x="6" y="12"/><ellipse cx="21" cy="31.0625" fill="#B4A7E5" rx="11" ry="11" style="stroke:#181818;stroke-width:1;"/><path d="M17.2656,37.0625 L24.9375,37.0625 L24.9375,34.9531 L22.3594,34.9531 L22.3594,28.0938 L24.9375,28.0938 L24.9375,25.9844 L17.2656,25.9844 L17.2656,28.0938 L19.8438,28.0938 L19.8438,34.9531 L17.2656,34.9531 L17.2656,37.0625 Z " fill="#000000"/><text fill="#000000" font-family="sans-serif" font-size="14" font-style="italic" lengthAdjust="spacing" textLength="77.8545" x="46.854" y="29.9883">WitnessType</text><text fill="#000000" font-family="sans-serif" font-size="10" font-style="italic" lengthAdjust="spacing" textLength="101.5625" x="35" y="42.6836">org.quurz.foomp.higher</text></g><!--class org.quurz.foomp.base.util.Attempt--><g class="entity" data-entity="org.quurz.foomp.base.util.Attempt" data-source-line="16" data-uid="ent0004" id="entity_org.quurz.foomp.base.util.Attempt"><a href="Attempt.html" target="_top" title="Attempt.html" xlink:actuate="onRequest" xlink:href="Attempt.html" xlink:show="new" xlink:title="Attempt.html" xlink:type="simple"><rect fill="#F1F1F1" height="38.125" rx="2.5" ry="2.5" style="stroke:#181818;stroke-width:0.5;" width="158.3398" x="158" y="12"/><ellipse cx="173" cy="31.0625" fill="#ADD1B2" rx="11" ry="11" style="stroke:#181818;stroke-width:1;"/><path d="M173.0469,37.2656 C174.5469,37.2656 175.7813,36.7031 176.6875,35.6406 L175.3125,34.125 C174.7656,34.7188 174.1094,35.1094 173.3125,35.1094 C171.6406,35.1094 170.4844,33.7813 170.4844,31.5 C170.4844,29.2813 171.6406,27.9375 173.2031,27.9375 C174.0156,27.9375 174.6094,28.25 175.1406,28.7344 L176.5156,27.1875 C175.7656,26.4531 174.6094,25.7813 173.2031,25.7813 C170.25,25.7813 167.9219,27.9219 167.9219,31.5938 C167.9219,35.3125 170.2969,37.2656 173.0469,37.2656 Z " fill="#000000"/><text fill="#000000" font-family="sans-serif" font-size="14" lengthAdjust="spacing" textLength="50.4355" x="219.1553" y="29.9883">Attempt</text><text fill="#000000" font-family="sans-serif" font-size="10" lengthAdjust="spacing" textLength="114.7461" x="187" y="42.6836">org.quurz.foomp.base.util</text><rect fill="#FFFFFF" height="16.0625" style="stroke:#181818;stroke-width:1;stroke-dasharray:2,2;" width="9.5938" x="309.7461" y="9"/><text fill="#000000" font-family="sans-serif" font-size="12" font-style="italic" lengthAdjust="spacing" textLength="7.5938" x="310.7461" y="21.1328">A</text></a></g><g class="link" data-entity-1="org.quurz.foomp.higher.WitnessType" data-entity-2="org.quurz.foomp.base.util.Attempt.." data-uid="lnk5" id="link_org.quurz.foomp.higher.WitnessType_org.quurz.foomp.base.util.Attempt.."><polygon fill="none" points="93.6921,50.1686,103.2592,66.5537,111.1768,57.5364,93.6921,50.1686" style="stroke:#181818;stroke-width:1;"/><path d="M107.218,62.0451 C119.6486,72.9597 121.8852,74.9236 134.3146,85.8372" fill="none" style="stroke:#181818;stroke-width:1;stroke-dasharray:7,7;"/></g><g class="link" data-entity-1="org.quurz.foomp.base.util.Attempt" data-entity-2="org.quurz.foomp.base.util.Attempt.." data-uid="lnk6" id="link_org.quurz.foomp.base.util.Attempt_org.quurz.foomp.base.util.Attempt.."><ellipse cx="210.2964" cy="55.447" fill="#FFFFFF" rx="8" ry="8" style="stroke:#181818;stroke-width:1;"/><line style="stroke:#181818;stroke-width:1;" x1="204.2849" x2="216.3079" y1="60.7255" y2="50.1686"/><line style="stroke:#181818;stroke-width:1;" x1="205.018" x2="215.5748" y1="49.4355" y2="61.4586"/><path d="M204.2849,60.7255 C191.8543,71.6401 188.1148,74.9236 175.6854,85.8372" fill="none" style="stroke:#181818;stroke-width:1;"/></g><g class="footer" data-source-line="27"><text fill="#888888" font-family="sans-serif" font-size="10" lengthAdjust="spacing" textLength="2.4805" x="156.2598" y="127.2773">&#160;</text><a href="https://github.com/talsma-ict/umldoclet" target="_top" title="https://github.com/talsma-ict/umldoclet" xlink:actuate="onRequest" xlink:href="https://github.com/talsma-ict/umldoclet" xlink:show="new" xlink:title="https://github.com/talsma-ict/umldoclet" xlink:type="simple"><text fill="#888888" font-family="sans-serif" font-size="10" lengthAdjust="spacing" textLength="73.7207" x="120.6396" y="138.9961">UMLDoclet 2.2.4</text></a></g><!--SRC=[hLJRRjD047tlLmpbWQBMwukIg8cYI24WBWeIegbuIFEmiIVsgkjTTtTSv0AVnG_mPQpja9WIIX_O5tjdPi-SC-jZ081dCDD5PKIQ4P06oeI5o_Tpu2g151KQJfY0o7cA5jOejKfjMuZ0Iygq0RrfTh4s1csXLI9K2k_uBGUhInEZPKT7qBHQ_4B_p6q7VLtLmPSwbaXmCdlUeHG5uS2BWcW02ovjpk7jRC6sQFip4OjO3nos534gwo1BbQ1fQ4qB7hl7lCsSmIqQAxHoPu8jJYqrreguK1OARiZMaZv8hgZc6ZBNly_204wc5_FVoGN3XjmPJ8tYPG8VzKsvq_kaC3nrb2MlT4bWSoIkU9kpZhNYkPiNZ_42NLTERfHAAspocKWGC2-eWer0cTZxKGUMQHTkuh7ariBns8ex78MzoPIehc8_lb-fRJ2OQ9Eocx8qTsoZTLwmDRV8IXBo6Dnj_3NBzc2mNEutBADShbOj0Q48pSP9wP3u94YXjOkgm0TOP6wIQ0vIQ5EiW_EGsF-dT3oTT9HsPVwR8Oo_ClQeOHu4_ACGJZtlSN0DtjXI9N7IlDVBrRkBWI-xGBtUE9vcBjJrJ4ltpJqzFvozh2qaXKBdslYw5WZ1hl9RsyxlzDlskbBBPKPKs97lfuAoSirYdVlKsDSJCVbbBfFMj_SSxCRSElBrxjTGkyiBUbuOBQ9Wr1-Cmf0DpyF-C1psejCW6WN1ybLfT87-YuRjwYS0]--></g></svg>