<svg xmlns="http://www.w3.org/2000/svg" xmlns:xlink="http://www.w3.org/1999/xlink" contentStyleType="text/css" data-diagram-type="CLASS" height="748px" preserveAspectRatio="none" style="width:3839px;height:748px;background:#FFFFFF;" version="1.1" viewBox="0 0 3839 748" width="3839px" zoomAndPan="magnify"><defs/><g><!--class org.quurz.foomp.base.util.Record3--><g class="entity" data-entity="org.quurz.foomp.base.util.Record3" data-source-line="13" data-uid="ent0002" id="entity_org.quurz.foomp.base.util.Record3"><a href="Record3.html" target="_top" title="Record3.html" xlink:actuate="onRequest" xlink:href="Record3.html" xlink:show="new" xlink:title="Record3.html" xlink:type="simple"><rect fill="#F1F1F1" height="456.2813" rx="2.5" ry="2.5" style="stroke:#181818;stroke-width:0.5;" width="1169.8711" x="2263.5" y="193"/><ellipse cx="2758.375" cy="212.0625" fill="#ADD1B2" rx="11" ry="11" style="stroke:#181818;stroke-width:1;"/><path d="M2758.4219,218.2656 C2759.9219,218.2656 2761.1563,217.7031 2762.0625,216.6406 L2760.6875,215.125 C2760.1406,215.7188 2759.4844,216.1094 2758.6875,216.1094 C2757.0156,216.1094 2755.8594,214.7813 2755.8594,212.5 C2755.8594,210.2813 2757.0156,208.9375 2758.5781,208.9375 C2759.3906,208.9375 2759.9844,209.25 2760.5156,209.7344 L2761.8906,208.1875 C2761.1406,207.4531 2759.9844,206.7813 2758.5781,206.7813 C2755.625,206.7813 2753.2969,208.9219 2753.2969,212.5938 C2753.2969,216.3125 2755.6719,218.2656 2758.4219,218.2656 Z " fill="#000000"/><text fill="#000000" font-family="sans-serif" font-size="14" lengthAdjust="spacing" textLength="51.8711" x="2810.3125" y="210.9883">Record3</text><text fill="#000000" font-family="sans-serif" font-size="10" lengthAdjust="spacing" textLength="114.7461" x="2778.875" y="223.6836">org.quurz.foomp.base.util</text><rect fill="#FFFFFF" height="16.0625" style="stroke:#181818;stroke-width:1;stroke-dasharray:2,2;" width="54.875" x="3381.4961" y="190"/><text fill="#000000" font-family="sans-serif" font-size="12" font-style="italic" lengthAdjust="spacing" textLength="52.875" x="3382.4961" y="202.1328">A1, A2, A3</text><line style="stroke:#181818;stroke-width:0.5;" x1="2264.5" x2="3432.3711" y1="231.125" y2="231.125"/><ellipse cx="2274.5" cy="244.8281" fill="#84BE84" rx="3" ry="3" style="stroke:#038048;stroke-width:1;"/><text fill="#000000" font-family="sans-serif" font-size="14" lengthAdjust="spacing" textLength="286.0635" x="2283.5" y="248.1133">Record3(NonNull A1, NonNull A2, NonNull A3)</text><ellipse cx="2274.5" cy="261.2344" fill="#84BE84" rx="3" ry="3" style="stroke:#038048;stroke-width:1;"/><text fill="#000000" font-family="sans-serif" font-size="14" lengthAdjust="spacing" text-decoration="underline" textLength="330.6953" x="2283.5" y="264.5195">narrow(Higher3&lt;&#181;, A1, A2, A3&gt;): Record3&lt;A1, A2, A3&gt;</text><ellipse cx="2274.5" cy="277.6406" fill="#84BE84" rx="3" ry="3" style="stroke:#038048;stroke-width:1;"/><text fill="#000000" font-family="sans-serif" font-size="14" lengthAdjust="spacing" text-decoration="underline" textLength="418.8105" x="2283.5" y="280.9258">record3(NonNull A1, NonNull A2, NonNull A3): Record3&lt;A1, A2, A3&gt;</text><ellipse cx="2274.5" cy="294.0469" fill="#84BE84" rx="3" ry="3" style="stroke:#038048;stroke-width:1;"/><text fill="#000000" font-family="sans-serif" font-size="14" lengthAdjust="spacing" textLength="125.125" x="2283.5" y="297.332">isPresent(): boolean</text><ellipse cx="2274.5" cy="310.4531" fill="#84BE84" rx="3" ry="3" style="stroke:#038048;stroke-width:1;"/><text fill="#000000" font-family="sans-serif" font-size="14" lengthAdjust="spacing" textLength="85.0322" x="2283.5" y="313.7383">is1(): boolean</text><ellipse cx="2274.5" cy="326.8594" fill="#84BE84" rx="3" ry="3" style="stroke:#038048;stroke-width:1;"/><text fill="#000000" font-family="sans-serif" font-size="14" lengthAdjust="spacing" textLength="85.0322" x="2283.5" y="330.1445">is2(): boolean</text><ellipse cx="2274.5" cy="343.2656" fill="#84BE84" rx="3" ry="3" style="stroke:#038048;stroke-width:1;"/><text fill="#000000" font-family="sans-serif" font-size="14" lengthAdjust="spacing" textLength="85.0322" x="2283.5" y="346.5508">is3(): boolean</text><ellipse cx="2274.5" cy="359.6719" fill="#84BE84" rx="3" ry="3" style="stroke:#038048;stroke-width:1;"/><text fill="#000000" font-family="sans-serif" font-size="14" lengthAdjust="spacing" textLength="107.085" x="2283.5" y="362.957">get(): NonNull A1</text><ellipse cx="2274.5" cy="376.0781" fill="#84BE84" rx="3" ry="3" style="stroke:#038048;stroke-width:1;"/><text fill="#000000" font-family="sans-serif" font-size="14" lengthAdjust="spacing" textLength="114.9531" x="2283.5" y="379.3633">get1(): NonNull A1</text><ellipse cx="2274.5" cy="392.4844" fill="#84BE84" rx="3" ry="3" style="stroke:#038048;stroke-width:1;"/><text fill="#000000" font-family="sans-serif" font-size="14" lengthAdjust="spacing" textLength="114.9531" x="2283.5" y="395.7695">get2(): NonNull A2</text><ellipse cx="2274.5" cy="408.8906" fill="#84BE84" rx="3" ry="3" style="stroke:#038048;stroke-width:1;"/><text fill="#000000" font-family="sans-serif" font-size="14" lengthAdjust="spacing" textLength="114.9531" x="2283.5" y="412.1758">get3(): NonNull A3</text><ellipse cx="2274.5" cy="425.2969" fill="#84BE84" rx="3" ry="3" style="stroke:#038048;stroke-width:1;"/><text fill="#000000" font-family="sans-serif" font-size="14" lengthAdjust="spacing" textLength="250.25" x="2283.5" y="428.582">with1(NonNull B1): Record3&lt;B1, A2, A3&gt;</text><ellipse cx="2274.5" cy="441.7031" fill="#84BE84" rx="3" ry="3" style="stroke:#038048;stroke-width:1;"/><text fill="#000000" font-family="sans-serif" font-size="14" lengthAdjust="spacing" textLength="250.25" x="2283.5" y="444.9883">with2(NonNull B2): Record3&lt;A1, B2, A3&gt;</text><ellipse cx="2274.5" cy="458.1094" fill="#84BE84" rx="3" ry="3" style="stroke:#038048;stroke-width:1;"/><text fill="#000000" font-family="sans-serif" font-size="14" lengthAdjust="spacing" textLength="250.25" x="2283.5" y="461.3945">with3(NonNull B3): Record3&lt;A1, A2, B3&gt;</text><ellipse cx="2274.5" cy="474.5156" fill="#84BE84" rx="3" ry="3" style="stroke:#038048;stroke-width:1;"/><text fill="#000000" font-family="sans-serif" font-size="14" lengthAdjust="spacing" textLength="401.3037" x="2283.5" y="477.8008">map1(Function&lt;? super A1, ? extends B1&gt;): Record3&lt;B1, A2, A3&gt;</text><ellipse cx="2274.5" cy="490.9219" fill="#84BE84" rx="3" ry="3" style="stroke:#038048;stroke-width:1;"/><text fill="#000000" font-family="sans-serif" font-size="14" lengthAdjust="spacing" textLength="401.3037" x="2283.5" y="494.207">map2(Function&lt;? super A2, ? extends B2&gt;): Record3&lt;A1, B2, A3&gt;</text><ellipse cx="2274.5" cy="507.3281" fill="#84BE84" rx="3" ry="3" style="stroke:#038048;stroke-width:1;"/><text fill="#000000" font-family="sans-serif" font-size="14" lengthAdjust="spacing" textLength="401.3037" x="2283.5" y="510.6133">map3(Function&lt;? super A3, ? extends B3&gt;): Record3&lt;A1, A2, B3&gt;</text><ellipse cx="2274.5" cy="523.7344" fill="#84BE84" rx="3" ry="3" style="stroke:#038048;stroke-width:1;"/><text fill="#000000" font-family="sans-serif" font-size="14" lengthAdjust="spacing" textLength="860.6035" x="2283.5" y="527.0195">mapAll(Function&lt;? super A1, ? extends B1&gt;, Function&lt;? super A2, ? extends B2&gt;, Function&lt;? super A3, ? extends B3&gt;): Record3&lt;B1, B2, B3&gt;</text><ellipse cx="2274.5" cy="540.1406" fill="#84BE84" rx="3" ry="3" style="stroke:#038048;stroke-width:1;"/><text fill="#000000" font-family="sans-serif" font-size="14" lengthAdjust="spacing" textLength="1143.8711" x="2283.5" y="543.4258">applyTo(Higher3&lt;&#181;, ? extends Function&lt;? super A1, ? extends B1&gt;, ? extends Function&lt;? super A2, ? extends B2&gt;, ? extends Function&lt;? super A3, ? extends B3&gt;&gt;): Higher3&lt;&#181;, B1, B2, B3&gt;</text><ellipse cx="2274.5" cy="556.5469" fill="#84BE84" rx="3" ry="3" style="stroke:#038048;stroke-width:1;"/><text fill="#000000" font-family="sans-serif" font-size="14" lengthAdjust="spacing" textLength="184.3789" x="2283.5" y="559.832">toTuple(): Tuple3&lt;A1, A2, A3&gt;</text><ellipse cx="2274.5" cy="572.9531" fill="#84BE84" rx="3" ry="3" style="stroke:#038048;stroke-width:1;"/><text fill="#000000" font-family="sans-serif" font-size="14" lengthAdjust="spacing" textLength="482.5557" x="2283.5" y="576.2383">transmogrify(Function&lt;? super Record3&lt;A1, A2, A3&gt;, ? extends T&gt;): NonNull T</text><ellipse cx="2274.5" cy="589.3594" fill="#84BE84" rx="3" ry="3" style="stroke:#038048;stroke-width:1;"/><text fill="#000000" font-family="sans-serif" font-size="14" lengthAdjust="spacing" textLength="176.0938" x="2283.5" y="592.6445">copy(): Record3&lt;A1, A2, A3&gt;</text><ellipse cx="2274.5" cy="605.7656" fill="#84BE84" rx="3" ry="3" style="stroke:#038048;stroke-width:1;"/><text fill="#000000" font-family="sans-serif" font-size="14" lengthAdjust="spacing" textLength="74.3408" x="2283.5" y="609.0508">value1(): A1</text><ellipse cx="2274.5" cy="622.1719" fill="#84BE84" rx="3" ry="3" style="stroke:#038048;stroke-width:1;"/><text fill="#000000" font-family="sans-serif" font-size="14" lengthAdjust="spacing" textLength="74.3408" x="2283.5" y="625.457">value2(): A2</text><ellipse cx="2274.5" cy="638.5781" fill="#84BE84" rx="3" ry="3" style="stroke:#038048;stroke-width:1;"/><text fill="#000000" font-family="sans-serif" font-size="14" lengthAdjust="spacing" textLength="74.3408" x="2283.5" y="641.8633">value3(): A3</text></a></g><!--class java.lang.Record--><g class="entity" data-entity="java.lang.Record" data-source-line="41" data-uid="ent0003" id="entity_java.lang.Record"><rect fill="#F1F1F1" height="38.125" rx="2.5" ry="2.5" style="stroke:#181818;stroke-width:0.5;" width="74.6768" x="6" y="65.5"/><ellipse cx="21" cy="84.5625" fill="#A9DCDF" rx="11" ry="11" style="stroke:#181818;stroke-width:1;"/><path d="M20.1406,84.2031 C20.4375,83.0938 20.75,81.8125 21.0156,80.625 L21.0781,80.625 C21.3438,81.8125 21.6719,83.0938 21.9688,84.2031 L22.2188,85.2188 L19.8906,85.2188 L20.1406,84.2031 Z M16.1563,89.8125 L18.7031,89.8125 L19.3906,87.1719 L22.7344,87.1719 L23.3906,89.8125 L26.0469,89.8125 L22.5938,78.7344 L19.6094,78.7344 L16.1563,89.8125 Z " fill="#000000"/><text fill="#000000" font-family="sans-serif" font-size="14" font-style="italic" lengthAdjust="spacing" textLength="42.6768" x="35" y="83.4883">Record</text><text fill="#000000" font-family="sans-serif" font-size="10" font-style="italic" lengthAdjust="spacing" textLength="38.5742" x="37.0513" y="96.1836">java.lang</text></g><!--class org.quurz.foomp.base.types.Appliable3--><g class="entity" data-entity="org.quurz.foomp.base.types.Appliable3" data-source-line="42" data-uid="ent0004" id="entity_org.quurz.foomp.base.types.Appliable3"><a href="../types/Appliable3.html" target="_top" title="../types/Appliable3.html" xlink:actuate="onRequest" xlink:href="../types/Appliable3.html" xlink:show="new" xlink:title="../types/Appliable3.html" xlink:type="simple"><rect fill="#F1F1F1" height="62.5313" rx="2.5" ry="2.5" style="stroke:#181818;stroke-width:0.5;" width="1427.374" x="99" y="53"/><ellipse cx="713.3638" cy="72.0625" fill="#B4A7E5" rx="11" ry="11" style="stroke:#181818;stroke-width:1;"/><path d="M709.6294,78.0625 L717.3013,78.0625 L717.3013,75.9531 L714.7231,75.9531 L714.7231,69.0938 L717.3013,69.0938 L717.3013,66.9844 L709.6294,66.9844 L709.6294,69.0938 L712.2075,69.0938 L712.2075,75.9531 L709.6294,75.9531 L709.6294,78.0625 Z " fill="#000000"/><text fill="#000000" font-family="sans-serif" font-size="14" font-style="italic" lengthAdjust="spacing" textLength="63.8682" x="762.6475" y="70.9883">Appliable3</text><text fill="#000000" font-family="sans-serif" font-size="10" font-style="italic" lengthAdjust="spacing" textLength="121.4355" x="733.8638" y="83.6836">org.quurz.foomp.base.types</text><rect fill="#FFFFFF" height="16.0625" style="stroke:#181818;stroke-width:1;stroke-dasharray:2,2;" width="66.7109" x="1462.6631" y="50"/><text fill="#000000" font-family="sans-serif" font-size="12" font-style="italic" lengthAdjust="spacing" textLength="64.7109" x="1463.6631" y="62.1328">&#181;, A1, A2, A3</text><line style="stroke:#181818;stroke-width:0.5;" x1="100" x2="1525.374" y1="91.125" y2="91.125"/><ellipse cx="110" cy="104.8281" fill="#84BE84" rx="3" ry="3" style="stroke:#038048;stroke-width:1;"/><text fill="#000000" font-family="sans-serif" font-size="14" font-style="italic" lengthAdjust="spacing" textLength="1401.374" x="119" y="108.1133">applyTo(Higher3&lt;WT extends WitnessType, ? extends Function&lt;? super A1, ? extends B1&gt;, ? extends Function&lt;? super A2, ? extends B2&gt;, ? extends Function&lt;? super A3, ? extends B3&gt;&gt;): Higher3&lt;WT extends WitnessType, B1, B2, B3&gt;</text></a></g><!--class org.quurz.foomp.base.types.Mappable3--><g class="entity" data-entity="org.quurz.foomp.base.types.Mappable3" data-source-line="45" data-uid="ent0005" id="entity_org.quurz.foomp.base.types.Mappable3"><a href="../types/Mappable3.html" target="_top" title="../types/Mappable3.html" xlink:actuate="onRequest" xlink:href="../types/Mappable3.html" xlink:show="new" xlink:title="../types/Mappable3.html" xlink:type="simple"><rect fill="#F1F1F1" height="62.5313" rx="2.5" ry="2.5" style="stroke:#181818;stroke-width:0.5;" width="1038.293" x="1544.5" y="53"/><ellipse cx="1964.3232" cy="72.0625" fill="#B4A7E5" rx="11" ry="11" style="stroke:#181818;stroke-width:1;"/><path d="M1960.5889,78.0625 L1968.2607,78.0625 L1968.2607,75.9531 L1965.6826,75.9531 L1965.6826,69.0938 L1968.2607,69.0938 L1968.2607,66.9844 L1960.5889,66.9844 L1960.5889,69.0938 L1963.167,69.0938 L1963.167,75.9531 L1960.5889,75.9531 L1960.5889,78.0625 Z " fill="#000000"/><text fill="#000000" font-family="sans-serif" font-size="14" font-style="italic" lengthAdjust="spacing" textLength="67.6484" x="2011.7168" y="70.9883">Mappable3</text><text fill="#000000" font-family="sans-serif" font-size="10" font-style="italic" lengthAdjust="spacing" textLength="121.4355" x="1984.8232" y="83.6836">org.quurz.foomp.base.types</text><rect fill="#FFFFFF" height="16.0625" style="stroke:#181818;stroke-width:1;stroke-dasharray:2,2;" width="66.7109" x="2519.082" y="50"/><text fill="#000000" font-family="sans-serif" font-size="12" font-style="italic" lengthAdjust="spacing" textLength="64.7109" x="2520.082" y="62.1328">&#181;, A1, A2, A3</text><line style="stroke:#181818;stroke-width:0.5;" x1="1545.5" x2="2581.793" y1="91.125" y2="91.125"/><ellipse cx="1555.5" cy="104.8281" fill="#84BE84" rx="3" ry="3" style="stroke:#038048;stroke-width:1;"/><text fill="#000000" font-family="sans-serif" font-size="14" font-style="italic" lengthAdjust="spacing" textLength="1012.293" x="1564.5" y="108.1133">mapAll(Function&lt;? super A1, ? extends B1&gt;, Function&lt;? super A2, ? extends B2&gt;, Function&lt;? super A3, ? extends B3&gt;): Mappable3&lt;WT extends WitnessType, B1, B2, B3&gt;</text></a></g><!--class org.quurz.foomp.base.types.Transmogrifyable--><g class="entity" data-entity="org.quurz.foomp.base.types.Transmogrifyable" data-source-line="48" data-uid="ent0006" id="entity_org.quurz.foomp.base.types.Transmogrifyable"><a href="../types/Transmogrifyable.html" target="_top" title="../types/Transmogrifyable.html" xlink:actuate="onRequest" xlink:href="../types/Transmogrifyable.html" xlink:show="new" xlink:title="../types/Transmogrifyable.html" xlink:type="simple"><rect fill="#F1F1F1" height="62.5313" rx="2.5" ry="2.5" style="stroke:#181818;stroke-width:0.5;" width="495.6289" x="2600.5" y="53"/><ellipse cx="2727.3467" cy="72.0625" fill="#B4A7E5" rx="11" ry="11" style="stroke:#181818;stroke-width:1;"/><path d="M2723.6123,78.0625 L2731.2842,78.0625 L2731.2842,75.9531 L2728.7061,75.9531 L2728.7061,69.0938 L2731.2842,69.0938 L2731.2842,66.9844 L2723.6123,66.9844 L2723.6123,69.0938 L2726.1904,69.0938 L2726.1904,75.9531 L2723.6123,75.9531 L2723.6123,78.0625 Z " fill="#000000"/><text fill="#000000" font-family="sans-serif" font-size="14" font-style="italic" lengthAdjust="spacing" textLength="106.4492" x="2755.3398" y="70.9883">Transmogrifyable</text><text fill="#000000" font-family="sans-serif" font-size="10" font-style="italic" lengthAdjust="spacing" textLength="121.4355" x="2747.8467" y="83.6836">org.quurz.foomp.base.types</text><rect fill="#FFFFFF" height="16.0625" style="stroke:#181818;stroke-width:1;stroke-dasharray:2,2;" width="110" x="2989.1289" y="50"/><text fill="#000000" font-family="sans-serif" font-size="12" font-style="italic" lengthAdjust="spacing" textLength="108" x="2990.1289" y="62.1328">Record3&lt;A1, A2, A3&gt;</text><line style="stroke:#181818;stroke-width:0.5;" x1="2601.5" x2="3095.1289" y1="91.125" y2="91.125"/><ellipse cx="2611.5" cy="104.8281" fill="#84BE84" rx="3" ry="3" style="stroke:#038048;stroke-width:1;"/><text fill="#000000" font-family="sans-serif" font-size="14" font-style="italic" lengthAdjust="spacing" textLength="469.6289" x="2620.5" y="108.1133">transmogrify(Function&lt;? super Transmogrifyable&lt;?&gt;, ? extends T&gt;): NonNull T</text></a></g><!--class org.quurz.foomp.base.types.Copyable--><g class="entity" data-entity="org.quurz.foomp.base.types.Copyable" data-source-line="51" data-uid="ent0007" id="entity_org.quurz.foomp.base.types.Copyable"><a href="../types/Copyable.html" target="_top" title="../types/Copyable.html" xlink:actuate="onRequest" xlink:href="../types/Copyable.html" xlink:show="new" xlink:title="../types/Copyable.html" xlink:type="simple"><rect fill="#F1F1F1" height="62.5313" rx="2.5" ry="2.5" style="stroke:#181818;stroke-width:0.5;" width="265.4355" x="3115" y="53"/><ellipse cx="3130" cy="72.0625" fill="#B4A7E5" rx="11" ry="11" style="stroke:#181818;stroke-width:1;"/><path d="M3126.2656,78.0625 L3133.9375,78.0625 L3133.9375,75.9531 L3131.3594,75.9531 L3131.3594,69.0938 L3133.9375,69.0938 L3133.9375,66.9844 L3126.2656,66.9844 L3126.2656,69.0938 L3128.8438,69.0938 L3128.8438,75.9531 L3126.2656,75.9531 L3126.2656,78.0625 Z " fill="#000000"/><text fill="#000000" font-family="sans-serif" font-size="14" font-style="italic" lengthAdjust="spacing" textLength="56.1572" x="3176.6392" y="70.9883">Copyable</text><text fill="#000000" font-family="sans-serif" font-size="10" font-style="italic" lengthAdjust="spacing" textLength="121.4355" x="3144" y="83.6836">org.quurz.foomp.base.types</text><rect fill="#FFFFFF" height="16.0625" style="stroke:#181818;stroke-width:1;stroke-dasharray:2,2;" width="110" x="3273.4355" y="50"/><text fill="#000000" font-family="sans-serif" font-size="12" font-style="italic" lengthAdjust="spacing" textLength="108" x="3274.4355" y="62.1328">Record3&lt;A1, A2, A3&gt;</text><line style="stroke:#181818;stroke-width:0.5;" x1="3116" x2="3379.4355" y1="91.125" y2="91.125"/><ellipse cx="3126" cy="104.8281" fill="#84BE84" rx="3" ry="3" style="stroke:#038048;stroke-width:1;"/><text fill="#000000" font-family="sans-serif" font-size="14" font-style="italic" lengthAdjust="spacing" textLength="171.083" x="3135" y="108.1133">copy(): Record3&lt;A1, A2, A3&gt;</text></a></g><!--class org.quurz.foomp.base.types.Value3--><g class="entity" data-entity="org.quurz.foomp.base.types.Value3" data-source-line="54" data-uid="ent0008" id="entity_org.quurz.foomp.base.types.Value3"><a href="../types/Value3.html" target="_top" title="../types/Value3.html" xlink:actuate="onRequest" xlink:href="../types/Value3.html" xlink:show="new" xlink:title="../types/Value3.html" xlink:type="simple"><rect fill="#F1F1F1" height="144.5625" rx="2.5" ry="2.5" style="stroke:#181818;stroke-width:0.5;" width="210.3105" x="3398.5" y="12"/><ellipse cx="3413.5" cy="31.0625" fill="#B4A7E5" rx="11" ry="11" style="stroke:#181818;stroke-width:1;"/><path d="M3409.7656,37.0625 L3417.4375,37.0625 L3417.4375,34.9531 L3414.8594,34.9531 L3414.8594,28.0938 L3417.4375,28.0938 L3417.4375,25.9844 L3409.7656,25.9844 L3409.7656,28.0938 L3412.3438,28.0938 L3412.3438,34.9531 L3409.7656,34.9531 L3409.7656,37.0625 Z " fill="#000000"/><text fill="#000000" font-family="sans-serif" font-size="14" font-style="italic" lengthAdjust="spacing" textLength="41.6514" x="3467.3921" y="29.9883">Value3</text><text fill="#000000" font-family="sans-serif" font-size="10" font-style="italic" lengthAdjust="spacing" textLength="121.4355" x="3427.5" y="42.6836">org.quurz.foomp.base.types</text><rect fill="#FFFFFF" height="16.0625" style="stroke:#181818;stroke-width:1;stroke-dasharray:2,2;" width="54.875" x="3556.9355" y="9"/><text fill="#000000" font-family="sans-serif" font-size="12" font-style="italic" lengthAdjust="spacing" textLength="52.875" x="3557.9355" y="21.1328">A1, A2, A3</text><line style="stroke:#181818;stroke-width:0.5;" x1="3399.5" x2="3607.8105" y1="50.125" y2="50.125"/><ellipse cx="3409.5" cy="63.8281" fill="#84BE84" rx="3" ry="3" style="stroke:#038048;stroke-width:1;"/><text fill="#000000" font-family="sans-serif" font-size="14" font-style="italic" lengthAdjust="spacing" textLength="82.6191" x="3418.5" y="67.1133">is1(): boolean</text><ellipse cx="3409.5" cy="80.2344" fill="#84BE84" rx="3" ry="3" style="stroke:#038048;stroke-width:1;"/><text fill="#000000" font-family="sans-serif" font-size="14" font-style="italic" lengthAdjust="spacing" textLength="82.6191" x="3418.5" y="83.5195">is2(): boolean</text><ellipse cx="3409.5" cy="96.6406" fill="#84BE84" rx="3" ry="3" style="stroke:#038048;stroke-width:1;"/><text fill="#000000" font-family="sans-serif" font-size="14" font-style="italic" lengthAdjust="spacing" textLength="82.6191" x="3418.5" y="99.9258">is3(): boolean</text><ellipse cx="3409.5" cy="113.0469" fill="#84BE84" rx="3" ry="3" style="stroke:#038048;stroke-width:1;"/><text fill="#000000" font-family="sans-serif" font-size="14" font-style="italic" lengthAdjust="spacing" textLength="111.7061" x="3418.5" y="116.332">get1(): NonNull A1</text><ellipse cx="3409.5" cy="129.4531" fill="#84BE84" rx="3" ry="3" style="stroke:#038048;stroke-width:1;"/><text fill="#000000" font-family="sans-serif" font-size="14" font-style="italic" lengthAdjust="spacing" textLength="111.7061" x="3418.5" y="132.7383">get2(): NonNull A2</text><ellipse cx="3409.5" cy="145.8594" fill="#84BE84" rx="3" ry="3" style="stroke:#038048;stroke-width:1;"/><text fill="#000000" font-family="sans-serif" font-size="14" font-style="italic" lengthAdjust="spacing" textLength="111.7061" x="3418.5" y="149.1445">get3(): NonNull A3</text></a></g><!--class org.quurz.foomp.higher.Higher3--><g class="entity" data-entity="org.quurz.foomp.higher.Higher3" data-source-line="62" data-uid="ent0009" id="entity_org.quurz.foomp.higher.Higher3"><rect fill="#F1F1F1" height="38.125" rx="2.5" ry="2.5" style="stroke:#181818;stroke-width:0.5;" width="202.2734" x="3626.5" y="65.5"/><ellipse cx="3641.5" cy="84.5625" fill="#B4A7E5" rx="11" ry="11" style="stroke:#181818;stroke-width:1;"/><path d="M3637.7656,90.5625 L3645.4375,90.5625 L3645.4375,88.4531 L3642.8594,88.4531 L3642.8594,81.5938 L3645.4375,81.5938 L3645.4375,79.4844 L3637.7656,79.4844 L3637.7656,81.5938 L3640.3438,81.5938 L3640.3438,88.4531 L3637.7656,88.4531 L3637.7656,90.5625 Z " fill="#000000"/><text fill="#000000" font-family="sans-serif" font-size="14" font-style="italic" lengthAdjust="spacing" textLength="47.5234" x="3682.5195" y="83.4883">Higher3</text><text fill="#000000" font-family="sans-serif" font-size="10" font-style="italic" lengthAdjust="spacing" textLength="101.5625" x="3655.5" y="96.1836">org.quurz.foomp.higher</text><rect fill="#FFFFFF" height="16.0625" style="stroke:#181818;stroke-width:1;stroke-dasharray:2,2;" width="66.7109" x="3765.0625" y="62.5"/><text fill="#000000" font-family="sans-serif" font-size="12" font-style="italic" lengthAdjust="spacing" textLength="64.7109" x="3766.0625" y="74.6328">&#181;, A1, A2, A3</text></g><!--class org.quurz.foomp.base.util.Record3.?--><g class="entity" data-entity="org.quurz.foomp.base.util.Record3.." data-source-line="63" data-uid="ent0010" id="entity_org.quurz.foomp.base.util.Record3.."><a href="Record3.&#181;.html" target="_top" title="Record3.&#181;.html" xlink:actuate="onRequest" xlink:href="Record3.&#181;.html" xlink:show="new" xlink:title="Record3.&#181;.html" xlink:type="simple"><rect fill="#F1F1F1" height="38.125" rx="2.5" ry="2.5" style="stroke:#181818;stroke-width:0.5;" width="146.7461" x="2775" y="685"/><ellipse cx="2790" cy="704.0625" fill="#ADD1B2" rx="11" ry="11" style="stroke:#181818;stroke-width:1;"/><path d="M2790.0469,710.2656 C2791.5469,710.2656 2792.7813,709.7031 2793.6875,708.6406 L2792.3125,707.125 C2791.7656,707.7188 2791.1094,708.1094 2790.3125,708.1094 C2788.6406,708.1094 2787.4844,706.7813 2787.4844,704.5 C2787.4844,702.2813 2788.6406,700.9375 2790.2031,700.9375 C2791.0156,700.9375 2791.6094,701.25 2792.1406,701.7344 L2793.5156,700.1875 C2792.7656,699.4531 2791.6094,698.7813 2790.2031,698.7813 C2787.25,698.7813 2784.9219,700.9219 2784.9219,704.5938 C2784.9219,708.3125 2787.2969,710.2656 2790.0469,710.2656 Z " fill="#000000"/><text fill="#000000" font-family="sans-serif" font-size="14" lengthAdjust="spacing" textLength="63.499" x="2829.6235" y="702.9883">Record3.&#181;</text><text fill="#000000" font-family="sans-serif" font-size="10" lengthAdjust="spacing" textLength="114.7461" x="2804" y="715.6836">org.quurz.foomp.base.util</text></a></g><g class="link" data-entity-1="java.lang.Record" data-entity-2="org.quurz.foomp.base.util.Record3" data-uid="lnk11" id="link_java.lang.Record_org.quurz.foomp.base.util.Record3"><polygon fill="none" points="49.8057,103.5784,51.0773,122.5094,62.1816,117.9602,49.8057,103.5784" style="stroke:#181818;stroke-width:1;"/><path d="M56.6295,120.2348 C63.5521,137.1325 69.5825,144.8686 89.5,157 C270.4417,267.2085 1508.3235,350.2579 2263.1758,391.3538" fill="none" style="stroke:#181818;stroke-width:1;"/></g><g class="link" data-entity-1="org.quurz.foomp.base.types.Appliable3" data-entity-2="org.quurz.foomp.base.util.Record3" data-uid="lnk12" id="link_org.quurz.foomp.base.types.Appliable3_org.quurz.foomp.base.util.Record3"><polygon fill="none" points="998.5788,116.0714,1015.368,124.9102,1017.3134,113.0689,998.5788,116.0714" style="stroke:#181818;stroke-width:1;"/><path d="M1016.3407,118.9895 C1300.1633,165.6195 1835.5847,253.5854 2263.4081,323.8736" fill="none" style="stroke:#181818;stroke-width:1;stroke-dasharray:7,7;"/></g><g class="link" data-entity-1="org.quurz.foomp.base.types.Mappable3" data-entity-2="org.quurz.foomp.base.util.Record3" data-uid="lnk13" id="link_org.quurz.foomp.base.types.Mappable3_org.quurz.foomp.base.util.Record3"><polygon fill="none" points="2135.2445,116.0714,2149.4518,128.6473,2154.1559,117.6078,2135.2445,116.0714" style="stroke:#181818;stroke-width:1;"/><path d="M2151.8038,123.1276 C2197.5064,142.6021 2244.7642,162.7393 2315.6097,192.9276" fill="none" style="stroke:#181818;stroke-width:1;stroke-dasharray:7,7;"/></g><g class="link" data-entity-1="org.quurz.foomp.base.types.Transmogrifyable" data-entity-2="org.quurz.foomp.base.util.Record3" data-uid="lnk14" id="link_org.quurz.foomp.base.types.Transmogrifyable_org.quurz.foomp.base.util.Record3"><polygon fill="none" points="2848.5,116.0714,2842.5,134.0714,2854.5,134.0714,2848.5,116.0714" style="stroke:#181818;stroke-width:1;"/><path d="M2848.5,134.0714 C2848.5,153.5056 2848.5,162.6268 2848.5,192.7402" fill="none" style="stroke:#181818;stroke-width:1;stroke-dasharray:7,7;"/></g><g class="link" data-entity-1="org.quurz.foomp.base.types.Copyable" data-entity-2="org.quurz.foomp.base.util.Record3" data-uid="lnk15" id="link_org.quurz.foomp.base.types.Copyable_org.quurz.foomp.base.util.Record3"><polygon fill="none" points="3211.0337,116.0714,3193.3851,123.0375,3201.0944,132.2334,3211.0337,116.0714" style="stroke:#181818;stroke-width:1;"/><path d="M3197.2398,127.6355 C3174.0581,147.0697 3155.5012,162.6268 3119.5812,192.7402" fill="none" style="stroke:#181818;stroke-width:1;stroke-dasharray:7,7;"/></g><g class="link" data-entity-1="org.quurz.foomp.base.types.Value3" data-entity-2="org.quurz.foomp.base.util.Record3" data-uid="lnk16" id="link_org.quurz.foomp.base.types.Value3_org.quurz.foomp.base.util.Record3"><polygon fill="none" points="3398.465,151.9517,3379.8591,155.6697,3385.8111,166.0896,3398.465,151.9517" style="stroke:#181818;stroke-width:1;"/><path d="M3382.8351,160.8796 C3361.2583,172.8452 3345.7214,180.9625 3323.1936,192.8831" fill="none" style="stroke:#181818;stroke-width:1;stroke-dasharray:7,7;"/></g><g class="link" data-entity-1="org.quurz.foomp.higher.Higher3" data-entity-2="org.quurz.foomp.base.util.Record3" data-uid="lnk17" id="link_org.quurz.foomp.higher.Higher3_org.quurz.foomp.base.util.Record3"><polygon fill="none" points="3703.6258,103.5032,3685.5329,109.217,3692.5797,118.93,3703.6258,103.5032" style="stroke:#181818;stroke-width:1;"/><path d="M3689.0563,114.0735 C3667.4363,129.759 3648.8346,141.7494 3617.5,157 C3558.9811,185.4814 3496.5852,212.2373 3433.6093,236.9649" fill="none" style="stroke:#181818;stroke-width:1;stroke-dasharray:7,7;"/></g><g class="link" data-entity-1="org.quurz.foomp.base.util.Record3" data-entity-2="org.quurz.foomp.base.util.Record3.." data-uid="lnk18" id="link_org.quurz.foomp.base.util.Record3_org.quurz.foomp.base.util.Record3.."><ellipse cx="2848.5" cy="657.1529" fill="#FFFFFF" rx="8" ry="8" style="stroke:#181818;stroke-width:1;"/><line style="stroke:#181818;stroke-width:1;" x1="2848.5" x2="2848.5" y1="665.1529" y2="649.1529"/><line style="stroke:#181818;stroke-width:1;" x1="2840.5" x2="2856.5" y1="657.1529" y2="657.1529"/><path d="M2848.5,665.1529 C2848.5,679.3021 2848.5,675.5277 2848.5,684.7371" fill="none" style="stroke:#181818;stroke-width:1;"/></g><g class="footer" data-source-line="80"><text fill="#888888" font-family="sans-serif" font-size="10" lengthAdjust="spacing" textLength="2.4805" x="1912.5098" y="726.2773">&#160;</text><a href="https://github.com/talsma-ict/umldoclet" target="_top" title="https://github.com/talsma-ict/umldoclet" xlink:actuate="onRequest" xlink:href="https://github.com/talsma-ict/umldoclet" xlink:show="new" xlink:title="https://github.com/talsma-ict/umldoclet" xlink:type="simple"><text fill="#888888" font-family="sans-serif" font-size="10" lengthAdjust="spacing" textLength="73.7207" x="1876.8896" y="737.9961">UMLDoclet 2.2.4</text></a></g><!--SRC=[pLZTRjis5BxlKvnr5tEGM9Ra9DiCmu6TTUk6j2XQTRr8Sq7BZCoL8bMIIkPcUQoyG9vi52Nhp_e940ER0SCopyUFtpdaEQG80F03dFDe8qYmLg0ug3MHyF7D1I2sWW0pB932Ao0X2h249QQS1J85Oa2nMdC1_DhyyxaGM4QShGWBu0zqWq3oMFXOMYzUW1dAsxBV8bbYNswInb-uJx62mVb1IP9hEwT3rtPFmKDKXWX-F_UiZAteurgkTGoQcn8VCwafOxR2miYQHyZNFnUfvGXki924Czt7pdWILttE529CGeI4aebBxoXYAj7gM7hy4yknOJ3_S54LP_zin1t1N30Kh-0z_nhd_duN2HHeoHHjUAn0XbWXXbARrAeP2dMya8y_O3qgKZgKZ3Dix6kome33I6tWcc2walLMJRRckjcq-nH92I-dadp34-TuzXxhoLYDFxEinPvn4LXVurXyiwuv3oDhYIIsOaNeIz1JqMgrCgRftD4-klexdi7bPTPghLL8hwxWpeX8FeUPPV2MixSnfP3qov_TqlFu8Ezq9nLInB-7GuQ4uBU3rpgwM8odZmz7K1huO08DSXfenDD5T5CU4lbEhsdCr40ZbvnJZ5ZPwhIqkotjuyRs01l-Gcx5v7JOt8hDhTZ65TkuiDqIjNRou2oSKX0MJK58y6w1Tsj1MpJXY-0lceAyAED353c3NsFcAvsNqpEGSQHpDu6U0VvRORQIMkMiJwQcSHjet0gDE-jJhsd63JJZ2atZOgmxDQVq2MuTGR_c9ao7e4NcLqKGYYAwyNWbkGg2f-ZiGkygxaBNjIVYoxeQ7L3SYoEAarLj7bfILWd4PCW3GQutk-5loFQo5czMoXcl8FLrpH_q5OiRH6DiihMSfQRLv6avFqshoT0iC-_JIewMKZlWgvQINgheV-aDrj9xL60gUFulgzY6Z325nRNUO4eySxqC25hgyFNj3ceJOTc-FHYpLT3LgxNU9YnhP52Z0hMxPTnjNRxVNQEVl7ncFX75i9IUvlj_hjishVMrVDywDM-q-_kRcPojQs9oKFUy_1V5hD3__CXwfPgGSEubm7NIQKDng0Ixtg4xvjrrR6VmixuwrXwTv42xjwXioNgZiGLsHw6lyBPxzQUfi7lnAQMQjkHGQkrse-MaM8Mu_P1n7wJZl5Y3jHqTQx2cKsHxqBDYs17rjK4qHZmrMIsd_wuN7UlnON_lEfgiz8hp-93DRBe_r_TPcFup7FPpchvFsaOreMKzdp2lddlYgzURFT5kYy2UwD9KV0vPTGq-MrOP1OTFMIbwmQKhRIhLXkBYUAdnEjzAzINvlDPkYml2lfnpoWLy_rEpzMDo6q89mzwQ-5-I7HJi79bcytHK6YyRwpExl5mh5Sd9Q1JebxfuQVay72bp4pCalXh58LsbLp2ronYTB-dboc_vBKzoKJAqZuUEwxdsvEHqucYaQzi_dfoU7X_QxiIsBr_5WaTuj31gh_u5]--></g></svg>