<svg xmlns="http://www.w3.org/2000/svg" xmlns:xlink="http://www.w3.org/1999/xlink" contentStyleType="text/css" data-diagram-type="CLASS" height="748px" preserveAspectRatio="none" style="width:3500px;height:748px;background:#FFFFFF;" version="1.1" viewBox="0 0 3500 748" width="3500px" zoomAndPan="magnify"><defs/><g><!--class org.quurz.foomp.base.util.Tuple3--><g class="entity" data-entity="org.quurz.foomp.base.util.Tuple3" data-source-line="13" data-uid="ent0002" id="entity_org.quurz.foomp.base.util.Tuple3"><a href="Tuple3.html" target="_top" title="Tuple3.html" xlink:actuate="onRequest" xlink:href="Tuple3.html" xlink:show="new" xlink:title="Tuple3.html" xlink:type="simple"><rect fill="#F1F1F1" height="456.2813" rx="2.5" ry="2.5" style="stroke:#181818;stroke-width:0.5;" width="1149.3359" x="2200" y="193"/><ellipse cx="2684.6074" cy="212.0625" fill="#ADD1B2" rx="11" ry="11" style="stroke:#181818;stroke-width:1;"/><path d="M2684.6543,218.2656 C2686.1543,218.2656 2687.3887,217.7031 2688.2949,216.6406 L2686.9199,215.125 C2686.373,215.7188 2685.7168,216.1094 2684.9199,216.1094 C2683.248,216.1094 2682.0918,214.7813 2682.0918,212.5 C2682.0918,210.2813 2683.248,208.9375 2684.8105,208.9375 C2685.623,208.9375 2686.2168,209.25 2686.748,209.7344 L2688.123,208.1875 C2687.373,207.4531 2686.2168,206.7813 2684.8105,206.7813 C2681.8574,206.7813 2679.5293,208.9219 2679.5293,212.5938 C2679.5293,216.3125 2681.9043,218.2656 2684.6543,218.2656 Z " fill="#000000"/><text fill="#000000" font-family="sans-serif" font-size="14" lengthAdjust="spacing" textLength="42.6289" x="2741.166" y="210.9883">Tuple3</text><text fill="#000000" font-family="sans-serif" font-size="10" lengthAdjust="spacing" textLength="114.7461" x="2705.1074" y="223.6836">org.quurz.foomp.base.util</text><rect fill="#FFFFFF" height="16.0625" style="stroke:#181818;stroke-width:1;stroke-dasharray:2,2;" width="54.875" x="3297.4609" y="190"/><text fill="#000000" font-family="sans-serif" font-size="12" font-style="italic" lengthAdjust="spacing" textLength="52.875" x="3298.4609" y="202.1328">A1, A2, A3</text><line style="stroke:#181818;stroke-width:0.5;" x1="2201" x2="3348.3359" y1="231.125" y2="231.125"/><ellipse cx="2211" cy="244.8281" fill="#84BE84" rx="3" ry="3" style="stroke:#038048;stroke-width:1;"/><text fill="#000000" font-family="sans-serif" font-size="14" lengthAdjust="spacing" text-decoration="underline" textLength="321.4531" x="2220" y="248.1133">narrow(Higher3&lt;&#181;, A1, A2, A3&gt;): Tuple3&lt;A1, A2, A3&gt;</text><ellipse cx="2211" cy="261.2344" fill="#84BE84" rx="3" ry="3" style="stroke:#038048;stroke-width:1;"/><text fill="#000000" font-family="sans-serif" font-size="14" lengthAdjust="spacing" text-decoration="underline" textLength="400.4355" x="2220" y="264.5195">tuple3(NonNull A1, NonNull A2, NonNull A3): Tuple3&lt;A1, A2, A3&gt;</text><ellipse cx="2211" cy="277.6406" fill="#84BE84" rx="3" ry="3" style="stroke:#038048;stroke-width:1;"/><text fill="#000000" font-family="sans-serif" font-size="14" lengthAdjust="spacing" textLength="85.0322" x="2220" y="280.9258">is1(): boolean</text><ellipse cx="2211" cy="294.0469" fill="#84BE84" rx="3" ry="3" style="stroke:#038048;stroke-width:1;"/><text fill="#000000" font-family="sans-serif" font-size="14" lengthAdjust="spacing" textLength="125.125" x="2220" y="297.332">isPresent(): boolean</text><ellipse cx="2211" cy="310.4531" fill="#84BE84" rx="3" ry="3" style="stroke:#038048;stroke-width:1;"/><text fill="#000000" font-family="sans-serif" font-size="14" lengthAdjust="spacing" textLength="85.0322" x="2220" y="313.7383">is2(): boolean</text><ellipse cx="2211" cy="326.8594" fill="#84BE84" rx="3" ry="3" style="stroke:#038048;stroke-width:1;"/><text fill="#000000" font-family="sans-serif" font-size="14" lengthAdjust="spacing" textLength="85.0322" x="2220" y="330.1445">is3(): boolean</text><ellipse cx="2211" cy="343.2656" fill="#84BE84" rx="3" ry="3" style="stroke:#038048;stroke-width:1;"/><text fill="#000000" font-family="sans-serif" font-size="14" lengthAdjust="spacing" textLength="114.9531" x="2220" y="346.5508">get1(): NonNull A1</text><ellipse cx="2211" cy="359.6719" fill="#84BE84" rx="3" ry="3" style="stroke:#038048;stroke-width:1;"/><text fill="#000000" font-family="sans-serif" font-size="14" lengthAdjust="spacing" textLength="107.085" x="2220" y="362.957">get(): NonNull A1</text><ellipse cx="2211" cy="376.0781" fill="#84BE84" rx="3" ry="3" style="stroke:#038048;stroke-width:1;"/><text fill="#000000" font-family="sans-serif" font-size="14" lengthAdjust="spacing" textLength="114.9531" x="2220" y="379.3633">get2(): NonNull A2</text><ellipse cx="2211" cy="392.4844" fill="#84BE84" rx="3" ry="3" style="stroke:#038048;stroke-width:1;"/><text fill="#000000" font-family="sans-serif" font-size="14" lengthAdjust="spacing" textLength="114.9531" x="2220" y="395.7695">get3(): NonNull A3</text><ellipse cx="2211" cy="408.8906" fill="#84BE84" rx="3" ry="3" style="stroke:#038048;stroke-width:1;"/><text fill="#000000" font-family="sans-serif" font-size="14" lengthAdjust="spacing" textLength="241.8281" x="2220" y="412.1758">with1(NonNull A1): Tuple3&lt;A1, A2, A3&gt;</text><ellipse cx="2211" cy="425.2969" fill="#84BE84" rx="3" ry="3" style="stroke:#038048;stroke-width:1;"/><text fill="#000000" font-family="sans-serif" font-size="14" lengthAdjust="spacing" textLength="241.8281" x="2220" y="428.582">with2(NonNull A2): Tuple3&lt;A1, A2, A3&gt;</text><ellipse cx="2211" cy="441.7031" fill="#84BE84" rx="3" ry="3" style="stroke:#038048;stroke-width:1;"/><text fill="#000000" font-family="sans-serif" font-size="14" lengthAdjust="spacing" textLength="241.8281" x="2220" y="444.9883">with3(NonNull A3): Tuple3&lt;A1, A2, A3&gt;</text><ellipse cx="2211" cy="458.1094" fill="#84BE84" rx="3" ry="3" style="stroke:#038048;stroke-width:1;"/><text fill="#000000" font-family="sans-serif" font-size="14" lengthAdjust="spacing" textLength="392.0615" x="2220" y="461.3945">map1(Function&lt;? super A1, ? extends B1&gt;): Tuple3&lt;B1, A2, A3&gt;</text><ellipse cx="2211" cy="474.5156" fill="#84BE84" rx="3" ry="3" style="stroke:#038048;stroke-width:1;"/><text fill="#000000" font-family="sans-serif" font-size="14" lengthAdjust="spacing" textLength="392.0615" x="2220" y="477.8008">map2(Function&lt;? super A2, ? extends B2&gt;): Tuple3&lt;A1, B2, A3&gt;</text><ellipse cx="2211" cy="490.9219" fill="#84BE84" rx="3" ry="3" style="stroke:#038048;stroke-width:1;"/><text fill="#000000" font-family="sans-serif" font-size="14" lengthAdjust="spacing" textLength="392.0615" x="2220" y="494.207">map3(Function&lt;? super A3, ? extends B3&gt;): Tuple3&lt;A1, A2, B3&gt;</text><ellipse cx="2211" cy="507.3281" fill="#84BE84" rx="3" ry="3" style="stroke:#038048;stroke-width:1;"/><text fill="#000000" font-family="sans-serif" font-size="14" lengthAdjust="spacing" textLength="851.3613" x="2220" y="510.6133">mapAll(Function&lt;? super A1, ? extends B1&gt;, Function&lt;? super A2, ? extends B2&gt;, Function&lt;? super A3, ? extends B3&gt;): Tuple3&lt;B1, B2, B3&gt;</text><ellipse cx="2211" cy="523.7344" fill="#84BE84" rx="3" ry="3" style="stroke:#038048;stroke-width:1;"/><text fill="#000000" font-family="sans-serif" font-size="14" lengthAdjust="spacing" textLength="1123.3359" x="2220" y="527.0195">applyTo(Higher3&lt;&#181;, ? extends Function&lt;? super A1, ? extends B1&gt;, ? extends Function&lt;? super A2, ? extends B2&gt;, ? extends Function&lt;? super A3, ? extends B3&gt;&gt;): Tuple3&lt;B1, B2, B3&gt;</text><ellipse cx="2211" cy="540.1406" fill="#84BE84" rx="3" ry="3" style="stroke:#038048;stroke-width:1;"/><text fill="#000000" font-family="sans-serif" font-size="14" lengthAdjust="spacing" textLength="233.8438" x="2220" y="543.4258">meld(Fun3&lt;A1, A2, A3, B&gt;): NonNull B</text><ellipse cx="2211" cy="556.5469" fill="#84BE84" rx="3" ry="3" style="stroke:#038048;stroke-width:1;"/><text fill="#000000" font-family="sans-serif" font-size="14" lengthAdjust="spacing" textLength="166.8516" x="2220" y="559.832">copy(): Tuple3&lt;A1, A2, A3&gt;</text><ellipse cx="2211" cy="572.9531" fill="#84BE84" rx="3" ry="3" style="stroke:#038048;stroke-width:1;"/><text fill="#000000" font-family="sans-serif" font-size="14" lengthAdjust="spacing" textLength="202.8633" x="2220" y="576.2383">toRecord(): Record3&lt;A1, A2, A3&gt;</text><ellipse cx="2211" cy="589.3594" fill="#84BE84" rx="3" ry="3" style="stroke:#038048;stroke-width:1;"/><text fill="#000000" font-family="sans-serif" font-size="14" lengthAdjust="spacing" textLength="189.9229" x="2220" y="592.6445">unwind1(): Tuple3&lt;A1, A2, A3&gt;</text><ellipse cx="2211" cy="605.7656" fill="#84BE84" rx="3" ry="3" style="stroke:#038048;stroke-width:1;"/><text fill="#000000" font-family="sans-serif" font-size="14" lengthAdjust="spacing" textLength="189.9229" x="2220" y="609.0508">unwind2(): Tuple3&lt;A1, A2, A3&gt;</text><ellipse cx="2211" cy="622.1719" fill="#84BE84" rx="3" ry="3" style="stroke:#038048;stroke-width:1;"/><text fill="#000000" font-family="sans-serif" font-size="14" lengthAdjust="spacing" textLength="189.9229" x="2220" y="625.457">unwind3(): Tuple3&lt;A1, A2, A3&gt;</text><ellipse cx="2211" cy="638.5781" fill="#84BE84" rx="3" ry="3" style="stroke:#038048;stroke-width:1;"/><text fill="#000000" font-family="sans-serif" font-size="14" lengthAdjust="spacing" textLength="182.0547" x="2220" y="641.8633">unwind(): Tuple3&lt;A1, A2, A3&gt;</text></a></g><!--class org.quurz.foomp.base.types.Appliable3--><g class="entity" data-entity="org.quurz.foomp.base.types.Appliable3" data-source-line="41" data-uid="ent0003" id="entity_org.quurz.foomp.base.types.Appliable3"><a href="../types/Appliable3.html" target="_top" title="../types/Appliable3.html" xlink:actuate="onRequest" xlink:href="../types/Appliable3.html" xlink:show="new" xlink:title="../types/Appliable3.html" xlink:type="simple"><rect fill="#F1F1F1" height="62.5313" rx="2.5" ry="2.5" style="stroke:#181818;stroke-width:0.5;" width="1427.374" x="6" y="53"/><ellipse cx="620.3638" cy="72.0625" fill="#B4A7E5" rx="11" ry="11" style="stroke:#181818;stroke-width:1;"/><path d="M616.6294,78.0625 L624.3013,78.0625 L624.3013,75.9531 L621.7231,75.9531 L621.7231,69.0938 L624.3013,69.0938 L624.3013,66.9844 L616.6294,66.9844 L616.6294,69.0938 L619.2075,69.0938 L619.2075,75.9531 L616.6294,75.9531 L616.6294,78.0625 Z " fill="#000000"/><text fill="#000000" font-family="sans-serif" font-size="14" font-style="italic" lengthAdjust="spacing" textLength="63.8682" x="669.6475" y="70.9883">Appliable3</text><text fill="#000000" font-family="sans-serif" font-size="10" font-style="italic" lengthAdjust="spacing" textLength="121.4355" x="640.8638" y="83.6836">org.quurz.foomp.base.types</text><rect fill="#FFFFFF" height="16.0625" style="stroke:#181818;stroke-width:1;stroke-dasharray:2,2;" width="66.7109" x="1369.6631" y="50"/><text fill="#000000" font-family="sans-serif" font-size="12" font-style="italic" lengthAdjust="spacing" textLength="64.7109" x="1370.6631" y="62.1328">&#181;, A1, A2, A3</text><line style="stroke:#181818;stroke-width:0.5;" x1="7" x2="1432.374" y1="91.125" y2="91.125"/><ellipse cx="17" cy="104.8281" fill="#84BE84" rx="3" ry="3" style="stroke:#038048;stroke-width:1;"/><text fill="#000000" font-family="sans-serif" font-size="14" font-style="italic" lengthAdjust="spacing" textLength="1401.374" x="26" y="108.1133">applyTo(Higher3&lt;WT extends WitnessType, ? extends Function&lt;? super A1, ? extends B1&gt;, ? extends Function&lt;? super A2, ? extends B2&gt;, ? extends Function&lt;? super A3, ? extends B3&gt;&gt;): Higher3&lt;WT extends WitnessType, B1, B2, B3&gt;</text></a></g><!--class org.quurz.foomp.base.types.Mappable3--><g class="entity" data-entity="org.quurz.foomp.base.types.Mappable3" data-source-line="44" data-uid="ent0004" id="entity_org.quurz.foomp.base.types.Mappable3"><a href="../types/Mappable3.html" target="_top" title="../types/Mappable3.html" xlink:actuate="onRequest" xlink:href="../types/Mappable3.html" xlink:show="new" xlink:title="../types/Mappable3.html" xlink:type="simple"><rect fill="#F1F1F1" height="62.5313" rx="2.5" ry="2.5" style="stroke:#181818;stroke-width:0.5;" width="1038.293" x="1451.5" y="53"/><ellipse cx="1871.3232" cy="72.0625" fill="#B4A7E5" rx="11" ry="11" style="stroke:#181818;stroke-width:1;"/><path d="M1867.5889,78.0625 L1875.2607,78.0625 L1875.2607,75.9531 L1872.6826,75.9531 L1872.6826,69.0938 L1875.2607,69.0938 L1875.2607,66.9844 L1867.5889,66.9844 L1867.5889,69.0938 L1870.167,69.0938 L1870.167,75.9531 L1867.5889,75.9531 L1867.5889,78.0625 Z " fill="#000000"/><text fill="#000000" font-family="sans-serif" font-size="14" font-style="italic" lengthAdjust="spacing" textLength="67.6484" x="1918.7168" y="70.9883">Mappable3</text><text fill="#000000" font-family="sans-serif" font-size="10" font-style="italic" lengthAdjust="spacing" textLength="121.4355" x="1891.8232" y="83.6836">org.quurz.foomp.base.types</text><rect fill="#FFFFFF" height="16.0625" style="stroke:#181818;stroke-width:1;stroke-dasharray:2,2;" width="66.7109" x="2426.082" y="50"/><text fill="#000000" font-family="sans-serif" font-size="12" font-style="italic" lengthAdjust="spacing" textLength="64.7109" x="2427.082" y="62.1328">&#181;, A1, A2, A3</text><line style="stroke:#181818;stroke-width:0.5;" x1="1452.5" x2="2488.793" y1="91.125" y2="91.125"/><ellipse cx="1462.5" cy="104.8281" fill="#84BE84" rx="3" ry="3" style="stroke:#038048;stroke-width:1;"/><text fill="#000000" font-family="sans-serif" font-size="14" font-style="italic" lengthAdjust="spacing" textLength="1012.293" x="1471.5" y="108.1133">mapAll(Function&lt;? super A1, ? extends B1&gt;, Function&lt;? super A2, ? extends B2&gt;, Function&lt;? super A3, ? extends B3&gt;): Mappable3&lt;WT extends WitnessType, B1, B2, B3&gt;</text></a></g><!--class org.quurz.foomp.base.types.Copyable--><g class="entity" data-entity="org.quurz.foomp.base.types.Copyable" data-source-line="47" data-uid="ent0005" id="entity_org.quurz.foomp.base.types.Copyable"><a href="../types/Copyable.html" target="_top" title="../types/Copyable.html" xlink:actuate="onRequest" xlink:href="../types/Copyable.html" xlink:show="new" xlink:title="../types/Copyable.html" xlink:type="simple"><rect fill="#F1F1F1" height="62.5313" rx="2.5" ry="2.5" style="stroke:#181818;stroke-width:0.5;" width="257.7539" x="2507.5" y="53"/><ellipse cx="2522.5" cy="72.0625" fill="#B4A7E5" rx="11" ry="11" style="stroke:#181818;stroke-width:1;"/><path d="M2518.7656,78.0625 L2526.4375,78.0625 L2526.4375,75.9531 L2523.8594,75.9531 L2523.8594,69.0938 L2526.4375,69.0938 L2526.4375,66.9844 L2518.7656,66.9844 L2518.7656,69.0938 L2521.3438,69.0938 L2521.3438,75.9531 L2518.7656,75.9531 L2518.7656,78.0625 Z " fill="#000000"/><text fill="#000000" font-family="sans-serif" font-size="14" font-style="italic" lengthAdjust="spacing" textLength="56.1572" x="2569.1392" y="70.9883">Copyable</text><text fill="#000000" font-family="sans-serif" font-size="10" font-style="italic" lengthAdjust="spacing" textLength="121.4355" x="2536.5" y="83.6836">org.quurz.foomp.base.types</text><rect fill="#FFFFFF" height="16.0625" style="stroke:#181818;stroke-width:1;stroke-dasharray:2,2;" width="102.3184" x="2665.9355" y="50"/><text fill="#000000" font-family="sans-serif" font-size="12" font-style="italic" lengthAdjust="spacing" textLength="100.3184" x="2666.9355" y="62.1328">Tuple3&lt;A1, A2, A3&gt;</text><line style="stroke:#181818;stroke-width:0.5;" x1="2508.5" x2="2764.2539" y1="91.125" y2="91.125"/><ellipse cx="2518.5" cy="104.8281" fill="#84BE84" rx="3" ry="3" style="stroke:#038048;stroke-width:1;"/><text fill="#000000" font-family="sans-serif" font-size="14" font-style="italic" lengthAdjust="spacing" textLength="162.1211" x="2527.5" y="108.1133">copy(): Tuple3&lt;A1, A2, A3&gt;</text></a></g><!--class org.quurz.foomp.base.types.Unwindable--><g class="entity" data-entity="org.quurz.foomp.base.types.Unwindable" data-source-line="50" data-uid="ent0006" id="entity_org.quurz.foomp.base.types.Unwindable"><a href="../types/Unwindable.html" target="_top" title="../types/Unwindable.html" xlink:actuate="onRequest" xlink:href="../types/Unwindable.html" xlink:show="new" xlink:title="../types/Unwindable.html" xlink:type="simple"><rect fill="#F1F1F1" height="62.5313" rx="2.5" ry="2.5" style="stroke:#181818;stroke-width:0.5;" width="257.7539" x="2783.5" y="53"/><ellipse cx="2798.5" cy="72.0625" fill="#B4A7E5" rx="11" ry="11" style="stroke:#181818;stroke-width:1;"/><path d="M2794.7656,78.0625 L2802.4375,78.0625 L2802.4375,75.9531 L2799.8594,75.9531 L2799.8594,69.0938 L2802.4375,69.0938 L2802.4375,66.9844 L2794.7656,66.9844 L2794.7656,69.0938 L2797.3438,69.0938 L2797.3438,75.9531 L2794.7656,75.9531 L2794.7656,78.0625 Z " fill="#000000"/><text fill="#000000" font-family="sans-serif" font-size="14" font-style="italic" lengthAdjust="spacing" textLength="70.4854" x="2837.9751" y="70.9883">Unwindable</text><text fill="#000000" font-family="sans-serif" font-size="10" font-style="italic" lengthAdjust="spacing" textLength="121.4355" x="2812.5" y="83.6836">org.quurz.foomp.base.types</text><rect fill="#FFFFFF" height="16.0625" style="stroke:#181818;stroke-width:1;stroke-dasharray:2,2;" width="102.3184" x="2941.9355" y="50"/><text fill="#000000" font-family="sans-serif" font-size="12" font-style="italic" lengthAdjust="spacing" textLength="100.3184" x="2942.9355" y="62.1328">Tuple3&lt;A1, A2, A3&gt;</text><line style="stroke:#181818;stroke-width:0.5;" x1="2784.5" x2="3040.2539" y1="91.125" y2="91.125"/><ellipse cx="2794.5" cy="104.8281" fill="#84BE84" rx="3" ry="3" style="stroke:#038048;stroke-width:1;"/><text fill="#000000" font-family="sans-serif" font-size="14" font-style="italic" lengthAdjust="spacing" textLength="176.8594" x="2803.5" y="108.1133">unwind(): Tuple3&lt;A1, A2, A3&gt;</text></a></g><!--class org.quurz.foomp.base.types.Value3--><g class="entity" data-entity="org.quurz.foomp.base.types.Value3" data-source-line="53" data-uid="ent0007" id="entity_org.quurz.foomp.base.types.Value3"><a href="../types/Value3.html" target="_top" title="../types/Value3.html" xlink:actuate="onRequest" xlink:href="../types/Value3.html" xlink:show="new" xlink:title="../types/Value3.html" xlink:type="simple"><rect fill="#F1F1F1" height="144.5625" rx="2.5" ry="2.5" style="stroke:#181818;stroke-width:0.5;" width="210.3105" x="3059.5" y="12"/><ellipse cx="3074.5" cy="31.0625" fill="#B4A7E5" rx="11" ry="11" style="stroke:#181818;stroke-width:1;"/><path d="M3070.7656,37.0625 L3078.4375,37.0625 L3078.4375,34.9531 L3075.8594,34.9531 L3075.8594,28.0938 L3078.4375,28.0938 L3078.4375,25.9844 L3070.7656,25.9844 L3070.7656,28.0938 L3073.3438,28.0938 L3073.3438,34.9531 L3070.7656,34.9531 L3070.7656,37.0625 Z " fill="#000000"/><text fill="#000000" font-family="sans-serif" font-size="14" font-style="italic" lengthAdjust="spacing" textLength="41.6514" x="3128.3921" y="29.9883">Value3</text><text fill="#000000" font-family="sans-serif" font-size="10" font-style="italic" lengthAdjust="spacing" textLength="121.4355" x="3088.5" y="42.6836">org.quurz.foomp.base.types</text><rect fill="#FFFFFF" height="16.0625" style="stroke:#181818;stroke-width:1;stroke-dasharray:2,2;" width="54.875" x="3217.9355" y="9"/><text fill="#000000" font-family="sans-serif" font-size="12" font-style="italic" lengthAdjust="spacing" textLength="52.875" x="3218.9355" y="21.1328">A1, A2, A3</text><line style="stroke:#181818;stroke-width:0.5;" x1="3060.5" x2="3268.8105" y1="50.125" y2="50.125"/><ellipse cx="3070.5" cy="63.8281" fill="#84BE84" rx="3" ry="3" style="stroke:#038048;stroke-width:1;"/><text fill="#000000" font-family="sans-serif" font-size="14" font-style="italic" lengthAdjust="spacing" textLength="82.6191" x="3079.5" y="67.1133">is1(): boolean</text><ellipse cx="3070.5" cy="80.2344" fill="#84BE84" rx="3" ry="3" style="stroke:#038048;stroke-width:1;"/><text fill="#000000" font-family="sans-serif" font-size="14" font-style="italic" lengthAdjust="spacing" textLength="82.6191" x="3079.5" y="83.5195">is2(): boolean</text><ellipse cx="3070.5" cy="96.6406" fill="#84BE84" rx="3" ry="3" style="stroke:#038048;stroke-width:1;"/><text fill="#000000" font-family="sans-serif" font-size="14" font-style="italic" lengthAdjust="spacing" textLength="82.6191" x="3079.5" y="99.9258">is3(): boolean</text><ellipse cx="3070.5" cy="113.0469" fill="#84BE84" rx="3" ry="3" style="stroke:#038048;stroke-width:1;"/><text fill="#000000" font-family="sans-serif" font-size="14" font-style="italic" lengthAdjust="spacing" textLength="111.7061" x="3079.5" y="116.332">get1(): NonNull A1</text><ellipse cx="3070.5" cy="129.4531" fill="#84BE84" rx="3" ry="3" style="stroke:#038048;stroke-width:1;"/><text fill="#000000" font-family="sans-serif" font-size="14" font-style="italic" lengthAdjust="spacing" textLength="111.7061" x="3079.5" y="132.7383">get2(): NonNull A2</text><ellipse cx="3070.5" cy="145.8594" fill="#84BE84" rx="3" ry="3" style="stroke:#038048;stroke-width:1;"/><text fill="#000000" font-family="sans-serif" font-size="14" font-style="italic" lengthAdjust="spacing" textLength="111.7061" x="3079.5" y="149.1445">get3(): NonNull A3</text></a></g><!--class org.quurz.foomp.higher.Higher3--><g class="entity" data-entity="org.quurz.foomp.higher.Higher3" data-source-line="61" data-uid="ent0008" id="entity_org.quurz.foomp.higher.Higher3"><rect fill="#F1F1F1" height="38.125" rx="2.5" ry="2.5" style="stroke:#181818;stroke-width:0.5;" width="202.2734" x="3287.5" y="65.5"/><ellipse cx="3302.5" cy="84.5625" fill="#B4A7E5" rx="11" ry="11" style="stroke:#181818;stroke-width:1;"/><path d="M3298.7656,90.5625 L3306.4375,90.5625 L3306.4375,88.4531 L3303.8594,88.4531 L3303.8594,81.5938 L3306.4375,81.5938 L3306.4375,79.4844 L3298.7656,79.4844 L3298.7656,81.5938 L3301.3438,81.5938 L3301.3438,88.4531 L3298.7656,88.4531 L3298.7656,90.5625 Z " fill="#000000"/><text fill="#000000" font-family="sans-serif" font-size="14" font-style="italic" lengthAdjust="spacing" textLength="47.5234" x="3343.5195" y="83.4883">Higher3</text><text fill="#000000" font-family="sans-serif" font-size="10" font-style="italic" lengthAdjust="spacing" textLength="101.5625" x="3316.5" y="96.1836">org.quurz.foomp.higher</text><rect fill="#FFFFFF" height="16.0625" style="stroke:#181818;stroke-width:1;stroke-dasharray:2,2;" width="66.7109" x="3426.0625" y="62.5"/><text fill="#000000" font-family="sans-serif" font-size="12" font-style="italic" lengthAdjust="spacing" textLength="64.7109" x="3427.0625" y="74.6328">&#181;, A1, A2, A3</text></g><!--class org.quurz.foomp.base.util.Tuple3.?--><g class="entity" data-entity="org.quurz.foomp.base.util.Tuple3.." data-source-line="62" data-uid="ent0009" id="entity_org.quurz.foomp.base.util.Tuple3.."><a href="Tuple3.&#181;.html" target="_top" title="Tuple3.&#181;.html" xlink:actuate="onRequest" xlink:href="Tuple3.&#181;.html" xlink:show="new" xlink:title="Tuple3.&#181;.html" xlink:type="simple"><rect fill="#F1F1F1" height="38.125" rx="2.5" ry="2.5" style="stroke:#181818;stroke-width:0.5;" width="146.7461" x="2701" y="685"/><ellipse cx="2716" cy="704.0625" fill="#ADD1B2" rx="11" ry="11" style="stroke:#181818;stroke-width:1;"/><path d="M2716.0469,710.2656 C2717.5469,710.2656 2718.7813,709.7031 2719.6875,708.6406 L2718.3125,707.125 C2717.7656,707.7188 2717.1094,708.1094 2716.3125,708.1094 C2714.6406,708.1094 2713.4844,706.7813 2713.4844,704.5 C2713.4844,702.2813 2714.6406,700.9375 2716.2031,700.9375 C2717.0156,700.9375 2717.6094,701.25 2718.1406,701.7344 L2719.5156,700.1875 C2718.7656,699.4531 2717.6094,698.7813 2716.2031,698.7813 C2713.25,698.7813 2710.9219,700.9219 2710.9219,704.5938 C2710.9219,708.3125 2713.2969,710.2656 2716.0469,710.2656 Z " fill="#000000"/><text fill="#000000" font-family="sans-serif" font-size="14" lengthAdjust="spacing" textLength="54.2568" x="2760.2446" y="702.9883">Tuple3.&#181;</text><text fill="#000000" font-family="sans-serif" font-size="10" lengthAdjust="spacing" textLength="114.7461" x="2730" y="715.6836">org.quurz.foomp.base.util</text></a></g><g class="link" data-entity-1="org.quurz.foomp.base.types.Appliable3" data-entity-2="org.quurz.foomp.base.util.Tuple3" data-uid="lnk10" id="link_org.quurz.foomp.base.types.Appliable3_org.quurz.foomp.base.util.Tuple3"><polygon fill="none" points="907.3153,116.0714,924.1175,124.8853,926.0454,113.0412,907.3153,116.0714" style="stroke:#181818;stroke-width:1;"/><path d="M925.0815,118.9633 C1215.0825,166.1678 1765.9329,255.8318 2199.8516,326.4623" fill="none" style="stroke:#181818;stroke-width:1;stroke-dasharray:7,7;"/></g><g class="link" data-entity-1="org.quurz.foomp.base.types.Mappable3" data-entity-2="org.quurz.foomp.base.util.Tuple3" data-uid="lnk11" id="link_org.quurz.foomp.base.types.Mappable3_org.quurz.foomp.base.util.Tuple3"><polygon fill="none" points="2043.981,116.0714,2058.2953,128.5253,2062.9048,117.446,2043.981,116.0714" style="stroke:#181818;stroke-width:1;"/><path d="M2060.6001,122.9857 C2107.4088,142.4602 2156.1515,162.7393 2228.7117,192.9276" fill="none" style="stroke:#181818;stroke-width:1;stroke-dasharray:7,7;"/></g><g class="link" data-entity-1="org.quurz.foomp.base.types.Copyable" data-entity-2="org.quurz.foomp.base.util.Tuple3" data-uid="lnk12" id="link_org.quurz.foomp.base.types.Copyable_org.quurz.foomp.base.util.Tuple3"><polygon fill="none" points="2649.1124,116.0714,2650.4306,134.9992,2661.5237,130.4227,2649.1124,116.0714" style="stroke:#181818;stroke-width:1;"/><path d="M2655.9772,132.711 C2663.9949,152.1452 2668.3191,162.6268 2680.7426,192.7402" fill="none" style="stroke:#181818;stroke-width:1;stroke-dasharray:7,7;"/></g><g class="link" data-entity-1="org.quurz.foomp.base.types.Unwindable" data-entity-2="org.quurz.foomp.base.util.Tuple3" data-uid="lnk13" id="link_org.quurz.foomp.base.types.Unwindable_org.quurz.foomp.base.util.Tuple3"><polygon fill="none" points="2899.8876,116.0714,2887.4763,130.4227,2898.5694,134.9992,2899.8876,116.0714" style="stroke:#181818;stroke-width:1;"/><path d="M2893.0228,132.711 C2885.0051,152.1452 2880.6809,162.6268 2868.2574,192.7402" fill="none" style="stroke:#181818;stroke-width:1;stroke-dasharray:7,7;"/></g><g class="link" data-entity-1="org.quurz.foomp.base.types.Value3" data-entity-2="org.quurz.foomp.base.util.Tuple3" data-uid="lnk14" id="link_org.quurz.foomp.base.types.Value3_org.quurz.foomp.base.util.Tuple3"><polygon fill="none" points="3080.8352,157.2586,3063.2661,164.4229,3071.0785,173.5315,3080.8352,157.2586" style="stroke:#181818;stroke-width:1;"/><path d="M3067.1723,168.9772 C3054.1909,180.1113 3053.8823,180.3759 3039.3118,192.8729" fill="none" style="stroke:#181818;stroke-width:1;stroke-dasharray:7,7;"/></g><g class="link" data-entity-1="org.quurz.foomp.higher.Higher3" data-entity-2="org.quurz.foomp.base.util.Tuple3" data-uid="lnk15" id="link_org.quurz.foomp.higher.Higher3_org.quurz.foomp.base.util.Tuple3"><polygon fill="none" points="3362.2721,103.5599,3344.0042,108.6868,3350.7339,118.6221,3362.2721,103.5599" style="stroke:#181818;stroke-width:1;"/><path d="M3347.369,113.6544 C3325.3574,128.564 3307.8046,139.8825 3278.5,157 C3258.0465,168.9474 3236.9984,180.9662 3215.6468,192.938" fill="none" style="stroke:#181818;stroke-width:1;stroke-dasharray:7,7;"/></g><g class="link" data-entity-1="org.quurz.foomp.base.util.Tuple3" data-entity-2="org.quurz.foomp.base.util.Tuple3.." data-uid="lnk16" id="link_org.quurz.foomp.base.util.Tuple3_org.quurz.foomp.base.util.Tuple3.."><ellipse cx="2774.5" cy="657.1529" fill="#FFFFFF" rx="8" ry="8" style="stroke:#181818;stroke-width:1;"/><line style="stroke:#181818;stroke-width:1;" x1="2774.5" x2="2774.5" y1="665.1529" y2="649.1529"/><line style="stroke:#181818;stroke-width:1;" x1="2766.5" x2="2782.5" y1="657.1529" y2="657.1529"/><path d="M2774.5,665.1529 C2774.5,679.3021 2774.5,675.5277 2774.5,684.7371" fill="none" style="stroke:#181818;stroke-width:1;"/></g><g class="footer" data-source-line="78"><text fill="#888888" font-family="sans-serif" font-size="10" lengthAdjust="spacing" textLength="2.4805" x="1743.0098" y="726.2773">&#160;</text><a href="https://github.com/talsma-ict/umldoclet" target="_top" title="https://github.com/talsma-ict/umldoclet" xlink:actuate="onRequest" xlink:href="https://github.com/talsma-ict/umldoclet" xlink:show="new" xlink:title="https://github.com/talsma-ict/umldoclet" xlink:type="simple"><text fill="#888888" font-family="sans-serif" font-size="10" lengthAdjust="spacing" textLength="73.7207" x="1707.3896" y="737.9961">UMLDoclet 2.2.4</text></a></g><!--SRC=[pLZRRjiu47tlLyos3-iYCIrHJhOrZ1HsThSNf4NHEji7Dm-qn5X4AL8bgQPkDv-L7yYNBIKvbkJeOY06kWOCovoZmpF3uV020F0xdCfufTWoD60ac91fE7zx1aG4iAI2Ac9e02mYIwfXGRaKIvq3AP34X5A1lCp- -L8fgcCf0YQMy8Py8w1bedogqQD7a7KrksE_8hh4lbYbZNzAdrC3lTEd9KdOSO_xsC77C2DSHmHUdyxGcgru1oECXc2vEVEfq9Oo4G5LcQn9J7pxSvPR3k4RLPf9OTznrZofgxuKXZ2X8IRAwDIbzvm8asfraUt_2BaEz2OVpwhYdEUPk4EOA46I03x8hyd6tzzYHPPMCYShcHZG4JL4aDochMf18XilujEFrFPAZ0sba89czf0556WKcnLSCie3lTrgoK9fcxDsdnEjuV5Oinzqv0vFPadCgVTPh1kS4wcMw6kIg1_eKieeHWkYAKeCuu_1ZaIZ5UL4uubhFSJswvt0V9utej14_E82VcOAqizFROXX_ZKS2AAKlEgzib6YoXlVtjXN2ugd8xZFMyDYCb3ldHJl4iupXiqpBZrxxOG7JBiz2rb8oIaHvVRtDc6fC0rMtD3krROlgScwAUHMR2qcNB7XYishsBp2TiLCw9PYqn6358uBEDu1NefyLuGZ4hkzlnFX6pkpnYz09x6TVIdq1T3lXef0mzGj3VoqWGNNiE0A2zvAdsaDYrV3ubLOwf9mkiKouNm7dmwXMt4TfbdFTErLHG-9OxwQoSgKAjxVHMOR-hxWDlIsz2xjaQrVQIJBoMCX9wNCdXPetvRNNaU-6Vc1skKcI77vKmCm4LTC16uNNmx3ky6ytM0jgEkyQZDXgBgqzRzKkITsd1bPx52zpIgckhbyPsPKq6qNOLl74Hfag461gYdgPA6D8hwvlf-4dsQRDFZ4ZA1QpopV_oinkxHkP-nruz2yjUxlRsGsR6q3im6rZyklA5Q5_eT7DjrHfLnx2UmTsVZ-vAl4zWxN7jgEQjJiqtbM1FRcLK7NvLU1RFTiXohLvDi_X2TxcWOvrRWX_tDhknyDkxig17T3l2v8omPl2zQqeTk2rUtjceE-BcGjKGypH6t4SnDgs92td27GxStUZX6MgpWztDwiXpLV2tTQms3yBqATtNJnRIhNVkZkwiX-s8hPkn- -V0OzWAkQEGyLLGB1GR-_Iyha-J7MPiLfiScoS3j5IYKX_RooBgip9hwSIcuFqq-UrLlFqxi1pWITXSp_aYvOu6oG-GGS3qhzhVlwBERpq9XOZmQ3fJqV9GlaosXWidk9FlFD88bua5z8R5rDs2pFhnfURkuyqck3lZFikzuCkoCFZuRFqP7pp1l-uHmV7JXuv3Zpln8bOpgOPcel_WC0]--></g></svg>